<svg width="82" height="82" viewBox="0 0 82 82" fill="none" xmlns="http://www.w3.org/2000/svg">
<path d="M82 41C82 63.6437 63.6437 82 41 82C18.3563 82 0 63.6437 0 41C0 18.3563 18.3563 0 41 0C63.6437 0 82 18.3563 82 41Z" fill="url(#paint0_linear_21443_560743)"/>
<path d="M82 41C82 63.6437 63.6437 82 41 82C18.3563 82 0 63.6437 0 41C0 18.3563 18.3563 0 41 0C63.6437 0 82 18.3563 82 41Z" fill="url(#paint1_linear_21443_560743)"/>
<path d="M56.2391 2.92554C51.8366 5.73251 46.6082 7.35897 41 7.35897C35.3918 7.35897 30.1634 5.73251 25.7609 2.92554C30.4719 1.03827 35.6147 0 41 0C46.3853 0 51.5281 1.03827 56.2391 2.92554Z" fill="white" fill-opacity="0.6"/>
<path d="M79.0745 25.7609C76.2675 30.1634 74.641 35.3918 74.641 41C74.641 46.6082 76.2675 51.8366 79.0745 56.2391C80.9617 51.5281 82 46.3853 82 41C82 35.6147 80.9617 30.4719 79.0745 25.7609Z" fill="white" fill-opacity="0.6"/>
<path d="M56.2391 79.0745C51.8366 76.2675 46.6082 74.641 41 74.641C35.3918 74.641 30.1634 76.2675 25.7609 79.0745C30.4719 80.9617 35.6147 82 41 82C46.3853 82 51.5281 80.9617 56.2391 79.0745Z" fill="white" fill-opacity="0.6"/>
<path d="M2.92554 56.2391C5.73251 51.8366 7.35897 46.6082 7.35897 41C7.35897 35.3918 5.73251 30.1634 2.92554 25.7609C1.03827 30.4719 0 35.6147 0 41C0 46.3853 1.03827 51.5281 2.92554 56.2391Z" fill="white" fill-opacity="0.6"/>
<path d="M35.217 4.86978C37.104 8.13812 32.9271 14.0823 25.8876 18.1466C18.8481 22.2108 11.6118 22.8561 9.7248 19.5877C7.83783 16.3194 12.0148 10.3752 19.0543 6.31092C26.0937 2.24667 33.3301 1.60145 35.217 4.86978Z" fill="white" fill-opacity="0.3"/>
<path d="M9.2791 23.1881C10.6203 23.9624 10.9471 25.9071 10.0092 27.5317C9.07122 29.1563 7.22363 29.8455 5.88246 29.0712C4.5413 28.2969 4.21443 26.3522 5.15239 24.7276C6.09034 23.103 7.93793 22.4138 9.2791 23.1881Z" fill="white" fill-opacity="0.3"/>
<path d="M41.0018 70.7005C57.4039 70.7005 70.7005 57.4039 70.7005 41.0018C70.7005 24.5997 57.4039 11.3031 41.0018 11.3031C24.5997 11.3031 11.3031 24.5997 11.3031 41.0018C11.3031 57.4039 24.5997 70.7005 41.0018 70.7005Z" fill="white" stroke="#B20A29" stroke-width="2.62821"/>
<defs>
<linearGradient id="paint0_linear_21443_560743" x1="41" y1="0" x2="41" y2="82" gradientUnits="userSpaceOnUse">
<stop stop-color="#63CE51"/>
<stop offset="1" stop-color="#2F8121"/>
</linearGradient>
<linearGradient id="paint1_linear_21443_560743" x1="41" y1="0" x2="41" y2="82" gradientUnits="userSpaceOnUse">
<stop stop-color="#FF4B6B"/>
<stop offset="1" stop-color="#CB072A"/>
</linearGradient>
</defs>
</svg>
