<svg width="60" height="60" viewBox="0 0 60 60" fill="none" xmlns="http://www.w3.org/2000/svg">
<circle cx="30" cy="30" r="30" fill="url(#paint0_linear_532_13096)"/>
<path d="M28.3799 30.4213V20.7199H25.6525C22.6322 20.7199 21.0396 18.7613 21.0396 16.8576C21.0396 14.8807 22.5041 13.7092 24.4627 13.7092C26.7142 13.7092 28.4714 15.4482 28.4714 18.3586V20.7199H31.5283V18.3586C31.5283 15.4482 33.2856 13.7092 35.537 13.7092C37.4956 13.7092 38.9783 14.8807 38.9783 16.8576C38.9783 18.7613 37.3308 20.7199 34.3472 20.7199H31.6198V30.4213H44.5246C46.5199 30.4213 47.5999 29.6526 47.5999 27.6939V23.4473C47.5999 21.507 46.5199 20.7199 44.5246 20.7199H40.2596C41.3945 19.6948 42.0718 18.3036 42.0718 16.7295C42.0718 13.1967 39.2712 10.6523 35.72 10.6523C33.0842 10.6523 30.9426 12.1166 30.009 14.716C29.0754 12.1166 26.9155 10.6523 24.2796 10.6523C20.7468 10.6523 17.9279 13.1967 17.9279 16.7295C17.9279 18.3036 18.5868 19.6948 19.7401 20.7199H15.4751C13.5897 20.7199 12.3999 21.507 12.3999 23.4473V27.6939C12.3999 29.6526 13.4981 30.4213 15.4751 30.4213H28.3799ZM28.3799 49.3484V32.3799H15.0174V44.699C15.0174 47.756 16.8113 49.3484 19.8681 49.3484H28.3799ZM31.6198 32.3799V49.3484H40.1315C43.1883 49.3484 44.9822 47.756 44.9822 44.699V32.3799H31.6198Z" fill="url(#paint1_linear_532_13096)"/>
<defs>
<linearGradient id="paint0_linear_532_13096" x1="0" y1="30" x2="60" y2="30" gradientUnits="userSpaceOnUse">
<stop stop-color="#B732FF"/>
<stop offset="1" stop-color="#EC09F8"/>
</linearGradient>
<linearGradient id="paint1_linear_532_13096" x1="29.9999" y1="10.6523" x2="29.9999" y2="49.3484" gradientUnits="userSpaceOnUse">
<stop offset="0.440249" stop-color="white"/>
<stop offset="1" stop-color="#FBCAFF"/>
</linearGradient>
</defs>
</svg>
