<svg width="60" height="60" viewBox="0 0 60 60" fill="none" xmlns="http://www.w3.org/2000/svg">
<path d="M41.625 14.2999H18.375C11 14.2999 5 20.2999 5 27.6749V41.6249C5 48.9999 11 54.9999 18.375 54.9999H41.625C49 54.9999 55 48.9999 55 41.6249V27.6749C55 20.2999 49 14.2999 41.625 14.2999ZM36.25 30.0499C36.25 28.6749 37.375 27.5499 38.75 27.5499C40.125 27.5499 41.25 28.6749 41.25 30.0499C41.25 31.4249 40.125 32.5749 38.75 32.5749C37.375 32.5749 36.25 31.4749 36.25 30.0999V30.0499ZM25.325 40.1749C24.95 40.5499 24.475 40.7249 24 40.7249C23.525 40.7249 23.05 40.5499 22.675 40.1749L20.1 37.5999L17.625 40.0749C17.25 40.4499 16.775 40.6249 16.3 40.6249C15.825 40.6249 15.35 40.4499 14.975 40.0749C14.25 39.3499 14.25 38.1499 14.975 37.4249L17.45 34.9499L15.05 32.5499C14.325 31.8249 14.325 30.6249 15.05 29.8999C15.775 29.1749 16.975 29.1749 17.7 29.8999L20.1 32.2999L22.575 29.8249C23.3 29.0999 24.5 29.0999 25.225 29.8249C25.95 30.5499 25.95 31.7499 25.225 32.4749L22.75 34.9499L25.325 37.5249C26.05 38.2499 26.05 39.4499 25.325 40.1749ZM33.85 37.4999C32.475 37.4999 31.325 36.3749 31.325 34.9999C31.325 33.6249 32.425 32.4999 33.8 32.4999H33.85C35.225 32.4999 36.35 33.6249 36.35 34.9999C36.35 36.3749 35.25 37.4999 33.85 37.4999ZM38.75 42.4249C37.375 42.4249 36.25 41.3249 36.25 39.9499V39.8999C36.25 38.5249 37.375 37.3999 38.75 37.3999C40.125 37.3999 41.25 38.5249 41.25 39.8999C41.25 41.2749 40.15 42.4249 38.75 42.4249ZM43.7 37.4999C42.325 37.4999 41.175 36.3749 41.175 34.9999C41.175 33.6249 42.275 32.4999 43.65 32.4999H43.7C45.075 32.4999 46.2 33.6249 46.2 34.9999C46.2 36.3749 45.1 37.4999 43.7 37.4999Z" fill="url(#paint0_linear_41_2863)"/>
<path d="M34.0984 6.775L34.0734 9.125C34.0484 11.325 32.2234 13.15 29.9984 13.15C29.6234 13.15 29.3984 13.4 29.3984 13.725C29.3984 14.05 29.6484 14.3 29.9734 14.3H25.9484C25.9234 14.125 25.8984 13.925 25.8984 13.725C25.8984 11.475 27.7234 9.65 29.9484 9.65C30.3234 9.65 30.5734 9.4 30.5734 9.075L30.5984 6.725C30.6234 5.775 31.3984 5 32.3484 5H32.3734C33.3484 5 34.0984 5.8 34.0984 6.775Z" fill="url(#paint1_linear_41_2863)"/>
<defs>
<linearGradient id="paint0_linear_41_2863" x1="5" y1="34.6499" x2="55" y2="34.6499" gradientUnits="userSpaceOnUse">
<stop stop-color="#EC09F8"/>
<stop offset="1" stop-color="#B732FF"/>
</linearGradient>
<linearGradient id="paint1_linear_41_2863" x1="25.8984" y1="9.65" x2="34.0984" y2="9.65" gradientUnits="userSpaceOnUse">
<stop stop-color="#EC09F8"/>
<stop offset="1" stop-color="#B732FF"/>
</linearGradient>
</defs>
</svg>
