<svg width="56" height="54" viewBox="0 0 56 54" fill="none" xmlns="http://www.w3.org/2000/svg">
<path fill-rule="evenodd" clip-rule="evenodd" d="M12.7614 20.6011C17.7615 12.287 20.2616 8.13 23.5256 6.73491C26.3726 5.51805 29.6237 5.51805 32.4707 6.73491C35.7347 8.13 38.2347 12.287 43.2349 20.6011C48.235 28.9152 50.7351 33.0722 50.3616 36.4834C50.0359 39.4588 48.4103 42.1617 45.8891 43.9202C42.9986 45.9363 37.9984 45.9363 27.9981 45.9363C17.9979 45.9363 12.9977 45.9363 10.1072 43.9202C7.58597 42.1617 5.96041 39.4588 5.63465 36.4834C5.26118 33.0722 7.76126 28.9152 12.7614 20.6011ZM27.998 14.7951C28.909 14.7951 29.6474 15.5041 29.6474 16.3786V29.0462C29.6474 29.9207 28.909 30.6296 27.998 30.6296C27.0871 30.6296 26.3486 29.9207 26.3486 29.0462V16.3786C26.3486 15.5041 27.0871 14.7951 27.998 14.7951ZM27.998 37.4912C29.2126 37.4912 30.1972 36.546 30.1972 35.38C30.1972 34.214 29.2126 33.2687 27.998 33.2687C26.7834 33.2687 25.7988 34.214 25.7988 35.38C25.7988 36.546 26.7834 37.4912 27.998 37.4912Z" fill="url(#paint0_linear_2946_12394)"/>
<defs>
<linearGradient id="paint0_linear_2946_12394" x1="27.9981" y1="5.82227" x2="27.9981" y2="45.9363" gradientUnits="userSpaceOnUse">
<stop stop-color="#FF71AE"/>
<stop offset="1" stop-color="#FF5383"/>
</linearGradient>
</defs>
</svg>
