<svg width="60" height="60" viewBox="0 0 60 60" fill="none" xmlns="http://www.w3.org/2000/svg">
<path d="M30 5C43.775 5 55 16.225 55 30C55 43.775 43.775 55 30 55C16.225 55 5 43.775 5 30C5 16.225 16.225 5 30 5Z" fill="url(#paint0_linear_1842_18807)"/>
<path d="M28.642 15.647V12.449H31.216V15.647C33.556 15.803 35.428 16.466 36.793 17.558C38.392 18.806 39.367 20.873 39.757 23.72H35.311C35.077 22.082 34.492 20.951 33.556 20.288C32.971 19.859 32.191 19.586 31.216 19.469V28.049C34.297 29.18 35.974 29.804 36.208 29.96C38.899 31.481 40.264 33.665 40.264 36.512C40.264 39.281 39.211 41.348 37.105 42.752C35.545 43.766 33.595 44.351 31.216 44.507V47.939H28.642V44.507C25.99 44.312 23.962 43.571 22.558 42.245C20.92 40.685 19.984 38.306 19.75 35.108H24.274C24.43 37.136 24.937 38.618 25.834 39.476C26.497 40.1 27.433 40.49 28.642 40.646V31.52L24.157 29.882C21.427 28.4 20.101 26.216 20.101 23.33C20.101 20.756 21.076 18.806 23.065 17.441C24.547 16.388 26.38 15.803 28.642 15.647ZM31.216 32.456V40.646C32.308 40.49 33.283 40.178 34.063 39.671C35.155 38.969 35.701 37.955 35.701 36.668C35.701 34.913 34.336 33.548 31.645 32.612C31.489 32.534 31.372 32.495 31.216 32.456ZM28.642 27.074V19.43C27.628 19.547 26.809 19.82 26.224 20.21C25.171 20.834 24.664 21.887 24.664 23.33C24.664 24.812 25.99 26.06 28.642 27.074Z" fill="white"/>
<defs>
<linearGradient id="paint0_linear_1842_18807" x1="55" y1="30.641" x2="5" y2="30.641" gradientUnits="userSpaceOnUse">
<stop stop-color="#FFB60C"/>
<stop offset="1" stop-color="#FF9021"/>
</linearGradient>
</defs>
</svg>

