<svg width="81" height="80" viewBox="0 0 81 80" fill="none" xmlns="http://www.w3.org/2000/svg">
<path d="M22.1699 54.7819C22.1699 57.6619 24.5263 60.0183 27.4063 60.0183H29.1517V68.7456C29.1517 71.1552 31.1049 73.1092 33.5154 73.1092C35.9258 73.1092 37.879 71.1552 37.879 68.7456V60.0183H43.1154V68.7456C43.1154 71.1552 45.0685 73.1092 47.479 73.1092C49.8895 73.1092 51.8426 71.1552 51.8426 68.7456V60.0183H53.5881C56.4681 60.0183 58.8245 57.6619 58.8245 54.7819V28.6001H22.1699V54.7819Z" fill="white"/>
<path d="M64.9339 27.7285C62.5235 27.7285 60.5703 29.6826 60.5703 32.0922V49.5467C60.5703 51.9563 62.5235 53.9103 64.9339 53.9103C67.3444 53.9103 69.2976 51.9563 69.2976 49.5467V32.0922C69.2976 29.6826 67.3444 27.7285 64.9339 27.7285Z" fill="white"/>
<path d="M16.0648 27.7285C13.6543 27.7285 11.7012 29.6826 11.7012 32.0922V49.5467C11.7012 51.9563 13.6543 53.9103 16.0648 53.9103C18.4753 53.9103 20.4284 51.9563 20.4284 49.5467V32.0922C20.4284 29.6826 18.4753 27.7285 16.0648 27.7285Z" fill="white"/>
<path d="M50.4166 11.4592L52.7721 7.14704C53.0034 6.72377 52.8472 6.19403 52.4248 5.96275C52.0024 5.73148 51.4709 5.88683 51.2405 6.3101L48.9059 10.583C46.3855 9.27737 43.5317 8.52857 40.4972 8.52857C37.4627 8.52857 34.6089 9.27737 32.0885 10.583L29.7539 6.3101C29.5218 5.8877 28.992 5.72974 28.5696 5.96275C28.1472 6.19403 27.991 6.72377 28.2223 7.14704L30.5778 11.4592C25.5238 14.7223 22.1699 20.3924 22.1699 26.8558H58.8245C58.8245 20.3924 55.4706 14.7223 50.4166 11.4592ZM32.6426 20.7468C31.6792 20.7468 30.8972 19.9648 30.8972 19.0013C30.8972 18.0378 31.6792 17.2558 32.6426 17.2558C33.6061 17.2558 34.3881 18.0378 34.3881 19.0013C34.3881 19.9648 33.6061 20.7468 32.6426 20.7468ZM48.3517 20.7468C47.3882 20.7468 46.6063 19.9648 46.6063 19.0013C46.6063 18.0378 47.3882 17.2558 48.3517 17.2558C49.3152 17.2558 50.0972 18.0378 50.0972 19.0013C50.0972 19.9648 49.3152 20.7468 48.3517 20.7468Z" fill="white"/>
</svg>
