<svg width="60" height="60" viewBox="0 0 60 60" fill="currentColor" xmlns="http://www.w3.org/2000/svg">
<path d="M22 36.0071C22 38.7746 24.0958 41 26.6667 41H31.9201C34.1556 41 35.972 39.0599 35.972 36.6348C35.972 34.0385 34.8543 33.097 33.2056 32.4979L24.7944 29.5021C23.1457 28.903 22.028 27.99 22.028 25.3652C22.028 22.9686 23.8443 21 26.0798 21H31.3333C33.9042 21 36 23.2254 36 25.9929" stroke="currentColor" stroke-width="4" stroke-linecap="round" stroke-linejoin="round"/>
<path d="M29 18V44" stroke="currentColor" stroke-width="4" stroke-linecap="round" stroke-linejoin="round"/>
<path d="M28.4819 6.50316C28.4463 6.50301 28.4107 6.50293 28.375 6.50293C14.9131 6.50293 4 17.416 4 30.8779C4 44.3399 14.9131 55.2529 28.375 55.2529C41.8369 55.2529 52.75 44.3399 52.75 30.8779C52.75 30.8779 52.75 28.625 50.9819 28.625C49 28.625 49 30.8779 49 30.8779C49 42.2688 39.7659 51.5029 28.375 51.5029C16.9841 51.5029 7.75 42.2688 7.75 30.8779C7.75 19.4871 16.9841 10.2529 28.375 10.2529C28.4107 10.2529 28.4463 10.253 28.4819 10.2532C28.4819 10.2532 30.7319 10.2468 30.7319 8.375C30.7319 6.50316 28.4819 6.50316 28.4819 6.50316Z" fill="currentColor"/>
<path d="M53.4803 3.875C53.5452 3.875 53.61 3.87849 53.6746 3.88477C53.7118 3.88835 53.7484 3.89479 53.785 3.90039C53.813 3.90468 53.8412 3.9076 53.869 3.91309C53.9712 3.93322 54.0699 3.96298 54.1659 3.99805C54.1931 4.00798 54.221 4.01619 54.2479 4.02734C54.2732 4.03788 54.2973 4.05097 54.3221 4.0625C54.3554 4.07798 54.3891 4.09294 54.4217 4.11035C54.4534 4.12731 54.4838 4.14645 54.5145 4.16504C54.5393 4.18008 54.5644 4.19472 54.5887 4.21094C54.6217 4.23295 54.6528 4.25736 54.6844 4.28125C54.7047 4.29665 54.7261 4.31086 54.7459 4.32715C54.8488 4.41135 54.9429 4.5056 55.0272 4.6084C55.0435 4.62826 55.0577 4.6496 55.0731 4.66992C55.097 4.70148 55.1214 4.73265 55.1434 4.76562C55.1596 4.7899 55.1742 4.81503 55.1893 4.83984C55.2079 4.87051 55.227 4.9009 55.244 4.93262C55.2614 4.96522 55.2763 4.9989 55.2918 5.03223C55.3034 5.05701 55.3164 5.08112 55.327 5.10645C55.3413 5.14077 55.3528 5.17602 55.3651 5.21094C55.3744 5.2375 55.3842 5.26395 55.3924 5.29102C55.4025 5.32425 55.4104 5.35798 55.4188 5.3916C55.4265 5.42271 55.435 5.45369 55.4412 5.48535C55.4467 5.51317 55.4496 5.54135 55.4539 5.56934C55.4693 5.66914 55.4803 5.7709 55.4803 5.875V15.875C55.4803 16.9796 54.5849 17.875 53.4803 17.875C52.3757 17.875 51.4803 16.9796 51.4803 15.875V10.7031L42.3944 19.7891C41.6133 20.5701 40.3473 20.5701 39.5662 19.7891C38.7852 19.008 38.7852 17.742 39.5662 16.9609L48.6522 7.875H43.4803C42.3757 7.87499 41.4803 6.97956 41.4803 5.875C41.4803 4.77044 42.3757 3.87501 43.4803 3.875H53.4803Z" fill="currentColor"/>
</svg>
