<svg width="48" height="48" viewBox="0 0 48 48" fill="none" xmlns="http://www.w3.org/2000/svg">
<path d="M32.7639 13.3615C32.7639 13.2927 32.7631 13.224 32.7615 13.1556C32.6521 8.41164 28.7722 4.59961 24.002 4.59961C19.2682 4.59961 15.4112 8.35365 15.2456 13.0471C15.2419 13.1514 15.2401 13.2563 15.2401 13.3615M32.7639 13.3615H15.2401M32.7639 13.3615H35.0573C38.7122 13.3615 40.5397 13.3615 41.5845 14.5289C42.6294 15.6962 42.4275 17.5125 42.0239 21.1451L41.5055 25.811C40.6816 33.2258 40.2697 36.9333 37.7746 39.1664C35.2796 41.3996 31.5204 41.3996 24.002 41.3996C16.4836 41.3996 12.7244 41.3996 10.2293 39.1664C7.7343 36.9333 7.32236 33.2259 6.49849 25.811L5.98006 21.1451C5.57644 17.5125 5.37463 15.6962 6.41947 14.5289C7.46431 13.3615 9.29177 13.3615 12.9467 13.3615H15.2401M13.4877 20.371L14.5391 21.4225C19.7653 26.6487 28.2387 26.6487 33.4648 21.4225L34.5163 20.371" stroke="white" stroke-width="3.50476" stroke-linecap="round"/>
</svg>
