<svg width="30" height="30" viewBox="0 0 30 30" fill="none" xmlns="http://www.w3.org/2000/svg">
<rect width="30" height="30" rx="15" fill="#F13DB8"/>
<path d="M15 3.5C18.9926 3.50019 22.249 6.70232 22.249 10.6768C22.2489 14.3103 19.5267 17.2964 16.0088 17.7822V20.7949H18.75L18.8516 20.7998C19.3559 20.8509 19.75 21.2771 19.75 21.7949C19.7498 22.3126 19.3558 22.739 18.8516 22.79L18.75 22.7949H16.0088V25.5C16.0085 26.0519 15.5607 26.4997 15.0088 26.5C14.4567 26.5 14.0091 26.0521 14.0088 25.5V22.7949H11.25C10.6979 22.7949 10.2503 22.347 10.25 21.7949C10.25 21.2426 10.6977 20.7949 11.25 20.7949H14.0088V17.7852C10.4821 17.3071 7.75012 14.3165 7.75 10.6768C7.75 6.70221 11.0073 3.5 15 3.5ZM15 5.5C12.0896 5.5 9.75 7.82891 9.75 10.6768C9.75013 13.5245 12.0896 15.8535 15 15.8535C17.9102 15.8533 20.2489 13.5244 20.249 10.6768C20.249 7.82902 17.9103 5.50019 15 5.5Z" fill="white"/>
</svg>
