<svg width="60" height="60" viewBox="0 0 60 60" fill="none" xmlns="http://www.w3.org/2000/svg">
<path d="M54.4687 25.9499L43.5122 36.4109L46.0996 51.1859C46.2122 51.8319 45.9413 52.4849 45.3996 52.8708C45.0935 53.0896 44.7294 53.1999 44.3653 53.1999C44.0856 53.1999 43.8042 53.1344 43.5474 53.0017L30 46.026L16.4543 53C15.8633 53.3067 15.1439 53.2567 14.6022 52.8691C14.0604 52.4832 13.7895 51.8302 13.9021 51.1842L16.4895 36.4092L5.53129 25.9499C5.05285 25.4916 4.87872 24.8059 5.08627 24.184C5.29383 23.5621 5.84438 23.1055 6.5075 23.0108L21.6503 20.8572L28.4222 7.41572C29.015 6.23903 30.985 6.23903 31.5778 7.41572L38.3497 20.8572L53.4925 23.0108C54.1556 23.1055 54.7062 23.5603 54.9137 24.184C55.1213 24.8077 54.9471 25.4899 54.4687 25.9499Z" fill="url(#paint0_linear_2338_18161)"/>
<defs>
<linearGradient id="paint0_linear_2338_18161" x1="30" y1="6.5332" x2="30" y2="53.1999" gradientUnits="userSpaceOnUse">
<stop stop-color="#FEE07E"/>
<stop offset="1" stop-color="#FFA601"/>
</linearGradient>
</defs>
</svg>
