<svg width="60" height="60" viewBox="0 0 60 60" fill="none" xmlns="http://www.w3.org/2000/svg">
<path d="M41.9815 19.2775C42.5 21.6919 42.5 24.9269 42.5 30C42.5 35.0717 42.5 38.3063 41.982 40.7205M41.9815 19.2775C41.7845 18.3602 41.5127 17.5613 41.1376 16.8251C39.9392 14.4731 38.0269 12.5608 35.6749 11.3624C33.001 10 29.5007 10 22.5 10C15.4993 10 11.999 10 9.32512 11.3624C6.97309 12.5608 5.06084 14.4731 3.86242 16.8251C2.5 19.499 2.5 22.9993 2.5 30C2.5 37.0007 2.5 40.501 3.86242 43.1749C5.06084 45.5269 6.97309 47.4392 9.32512 48.6376C11.999 50 15.4993 50 22.5 50C29.5007 50 33.001 50 35.6749 48.6376C38.0269 47.4392 39.9392 45.5269 41.1376 43.1749C41.513 42.4381 41.7849 41.6386 41.982 40.7205M41.9815 19.2775L42.5 19.0544L43.496 18.6192C49.8156 15.8578 52.9754 14.4771 55.2377 15.9574C57.5 17.4377 57.5 20.886 57.5 27.7826V32.2174C57.5 39.114 57.5 42.5623 55.2377 44.0426C52.9754 45.5229 49.8156 44.1422 43.496 41.3808L42.5 40.9456L41.982 40.7205M15 30C15 25.5356 15 23.3034 15.8795 22.013C16.6467 20.8874 17.8259 20.1617 19.1239 20.0163C20.612 19.8496 22.4256 20.9657 26.0526 23.1979C29.6797 25.4301 31.4932 26.5462 32.1019 28.0033C32.6327 29.2743 32.6327 30.7257 32.1019 31.9967C31.4932 33.4538 29.6797 34.5699 26.0526 36.8021C22.4256 39.0343 20.612 40.1504 19.1239 39.9837C17.8259 39.8383 16.6467 39.1126 15.8795 37.987C15 36.6966 15 34.4644 15 30Z" stroke="#656565" stroke-width="3.75"/>
</svg>
