<svg width="49" height="48" viewBox="0 0 49 48" fill="none" xmlns="http://www.w3.org/2000/svg">
<path d="M24.5 4.7998C29.5921 4.7998 34.4755 6.82325 38.0762 10.4238C41.6768 14.0245 43.7001 18.9079 43.7002 24C43.7002 29.0922 41.6769 33.9755 38.0762 37.5762C34.4755 41.1769 29.5922 43.2002 24.5 43.2002C19.4079 43.2001 14.5245 41.1768 10.9238 37.5762C7.32325 33.9755 5.2998 29.0921 5.2998 24C5.29986 18.9079 7.32318 14.0245 10.9238 10.4238C14.5245 6.82318 19.4079 4.79986 24.5 4.7998Z" stroke="#5D5D5D" stroke-width="3.2"/>
<path d="M15.3374 29.7666C15.8921 31.5693 18.499 35.1746 24.4894 35.1746C30.4798 35.1746 33.0867 31.5693 33.6414 29.7666" stroke="#5D5D5D" stroke-width="3.2" stroke-linecap="round"/>
<mask id="path-3-inside-1_532_13142" fill="white">
<ellipse cx="18.6649" cy="19.783" rx="2.496" ry="4.16"/>
</mask>
<path d="M21.1609 19.783H17.9609C17.9609 20.4515 17.7918 20.9018 17.6859 21.0782C17.6365 21.1606 17.6515 21.1002 17.7928 21.0007C17.9518 20.8886 18.2558 20.743 18.6649 20.743V23.943V27.143C20.9198 27.143 22.4146 25.6365 23.1739 24.371C23.9714 23.0418 24.3609 21.4121 24.3609 19.783H21.1609ZM18.6649 23.943V20.743C19.0741 20.743 19.3781 20.8886 19.5371 21.0007C19.6783 21.1002 19.6934 21.1606 19.644 21.0782C19.5381 20.9018 19.3689 20.4515 19.3689 19.783H16.1689H12.9689C12.9689 21.4121 13.3585 23.0418 14.156 24.371C14.9153 25.6365 16.4101 27.143 18.6649 27.143V23.943ZM16.1689 19.783H19.3689C19.3689 19.1146 19.5381 18.6643 19.644 18.4879C19.6934 18.4055 19.6783 18.4659 19.5371 18.5654C19.3781 18.6775 19.0741 18.823 18.6649 18.823V15.623V12.423C16.4101 12.423 14.9153 13.9296 14.156 15.1951C13.3585 16.5243 12.9689 18.154 12.9689 19.783H16.1689ZM18.6649 15.623V18.823C18.2558 18.823 17.9518 18.6775 17.7928 18.5654C17.6515 18.4659 17.6365 18.4055 17.6859 18.4879C17.7918 18.6643 17.9609 19.1146 17.9609 19.783H21.1609H24.3609C24.3609 18.154 23.9714 16.5243 23.1739 15.1951C22.4146 13.9296 20.9198 12.423 18.6649 12.423V15.623Z" fill="#5D5D5D" mask="url(#path-3-inside-1_532_13142)"/>
<mask id="path-5-inside-2_532_13142" fill="white">
<ellipse cx="30.3134" cy="19.783" rx="2.496" ry="4.16"/>
</mask>
<path d="M32.8094 19.783H29.6094C29.6094 20.4515 29.4402 20.9018 29.3343 21.0782C29.2849 21.1606 29.3 21.1002 29.4412 21.0007C29.6002 20.8886 29.9042 20.743 30.3134 20.743V23.943V27.143C32.5683 27.143 34.063 25.6365 34.8223 24.371C35.6198 23.0418 36.0094 21.4121 36.0094 19.783H32.8094ZM30.3134 23.943V20.743C30.7226 20.743 31.0266 20.8886 31.1856 21.0007C31.3268 21.1002 31.3418 21.1606 31.2924 21.0782C31.1866 20.9018 31.0174 20.4515 31.0174 19.783H27.8174H24.6174C24.6174 21.4121 25.0069 23.0418 25.8045 24.371C26.5638 25.6365 28.0585 27.143 30.3134 27.143V23.943ZM27.8174 19.783H31.0174C31.0174 19.1146 31.1866 18.6643 31.2924 18.4879C31.3418 18.4055 31.3268 18.4659 31.1856 18.5654C31.0266 18.6775 30.7226 18.823 30.3134 18.823V15.623V12.423C28.0585 12.423 26.5638 13.9296 25.8045 15.1951C25.0069 16.5243 24.6174 18.154 24.6174 19.783H27.8174ZM30.3134 15.623V18.823C29.9042 18.823 29.6002 18.6775 29.4412 18.5654C29.3 18.4659 29.2849 18.4055 29.3343 18.4879C29.4402 18.6643 29.6094 19.1146 29.6094 19.783H32.8094H36.0094C36.0094 18.154 35.6198 16.5243 34.8223 15.1951C34.063 13.9296 32.5683 12.423 30.3134 12.423V15.623Z" fill="#5D5D5D" mask="url(#path-5-inside-2_532_13142)"/>
</svg>
