<svg width="32" height="32" viewBox="0 0 32 32" fill="none" xmlns="http://www.w3.org/2000/svg">
<circle cx="16" cy="16" r="13.8271" fill="#FEC424" stroke="url(#paint0_linear_1024_7732)" stroke-width="4.34587"/>
<circle cx="16" cy="16" r="15.7366" stroke="url(#paint1_linear_1024_7732)" stroke-width="0.526772"/>
<circle cx="15.9989" cy="16.0648" r="11.483" stroke="url(#paint2_linear_1024_7732)" stroke-width="0.395079"/>
<path d="M17.1976 10.0682L18.4177 12.5286C18.5841 12.8711 19.0278 13.1996 19.4021 13.2626L21.6136 13.633C23.0279 13.8707 23.3606 14.9052 22.3415 15.9257L20.6223 17.6592C20.3311 17.9528 20.1716 18.5189 20.2618 18.9243L20.754 21.0702C21.1422 22.7688 20.2479 23.4258 18.7574 22.5381L16.6846 21.3009C16.3102 21.0772 15.6932 21.0772 15.3119 21.3009L13.2391 22.5381C11.7555 23.4258 10.8543 22.7618 11.2425 21.0702L11.7347 18.9243C11.8248 18.5189 11.6654 17.9528 11.3742 17.6592L9.65493 15.9257C8.64278 14.9052 8.96861 13.8707 10.3829 13.633L12.5943 13.2626C12.9618 13.1996 13.4055 12.8711 13.5718 12.5286L14.792 10.0682C15.4575 8.73313 16.539 8.73313 17.1976 10.0682Z" fill="white"/>
<defs>
<linearGradient id="paint0_linear_1024_7732" x1="27.4728" y1="4.1834" x2="6.3049" y2="28.5941" gradientUnits="userSpaceOnUse">
<stop stop-color="#FED64A"/>
<stop offset="0.123016" stop-color="#FEF14E"/>
<stop offset="0.248796" stop-color="#FFDF6C"/>
<stop offset="0.482583" stop-color="#FCFF67"/>
<stop offset="0.743348" stop-color="#FED545"/>
<stop offset="0.82597" stop-color="#FECA45"/>
<stop offset="1" stop-color="#FEED44"/>
</linearGradient>
<linearGradient id="paint1_linear_1024_7732" x1="12.8516" y1="-5.43684e-08" x2="16.7425" y2="32" gradientUnits="userSpaceOnUse">
<stop stop-color="#FFF3C4"/>
<stop offset="0.483894" stop-color="#EDC071"/>
<stop offset="0.961122" stop-color="#BF8147"/>
</linearGradient>
<linearGradient id="paint2_linear_1024_7732" x1="13.0836" y1="4.38428" x2="23.6297" y2="25.1984" gradientUnits="userSpaceOnUse">
<stop stop-color="#C8892B"/>
<stop offset="0.979601" stop-color="#FFEDA3"/>
</linearGradient>
</defs>
</svg>
