<svg width="44" height="44" viewBox="0 0 44 44" fill="none" xmlns="http://www.w3.org/2000/svg">
<path d="M5.1333 12.1606C5.1333 8.27926 8.27974 5.13281 12.1611 5.13281H13.5666C17.448 5.13281 20.5944 8.27926 20.5944 12.1606V19.1884C20.5944 19.9646 19.9651 20.5939 19.1889 20.5939H12.1611C8.27974 20.5939 5.1333 17.4475 5.1333 13.5661V12.1606Z" fill="white"/>
<path d="M38.8666 31.8384C38.8666 35.7197 35.7202 38.8661 31.8389 38.8661H30.4333C26.552 38.8661 23.4055 35.7197 23.4055 31.8384L23.4055 24.8106C23.4055 24.0343 24.0348 23.405 24.8111 23.405L31.8389 23.405C35.7202 23.405 38.8666 26.5515 38.8666 30.4328V31.8384Z" fill="white"/>
<path d="M31.8389 5.13281C35.7202 5.13281 38.8666 8.27926 38.8666 12.1606V13.5661C38.8666 17.4475 35.7202 20.5939 31.8389 20.5939H24.8111C24.0348 20.5939 23.4055 19.9646 23.4055 19.1884V12.1606C23.4055 8.27925 26.552 5.13281 30.4333 5.13281L31.8389 5.13281Z" fill="white"/>
<path d="M12.1611 38.8661C8.27974 38.8661 5.1333 35.7197 5.1333 31.8384L5.1333 30.4328C5.1333 26.5515 8.27975 23.405 12.1611 23.405H19.1889C19.9651 23.405 20.5944 24.0343 20.5944 24.8106V31.8384C20.5944 35.7197 17.448 38.8661 13.5666 38.8661L12.1611 38.8661Z" fill="white"/>
</svg>
