<svg width="60" height="60" viewBox="0 0 60 60" fill="none" xmlns="http://www.w3.org/2000/svg">
<path d="M30 5C43.8071 5 55 16.1929 55 30C55 43.8071 43.8071 55 30 55C16.1929 55 5 43.8071 5 30C5 16.1929 16.1929 5 30 5ZM30 17.5C28.6193 17.5 27.5 18.6193 27.5 20V27.5H20C18.6193 27.5 17.5 28.6193 17.5 30C17.5001 31.3806 18.6194 32.5 20 32.5H27.5V40C27.5001 41.3806 28.6194 42.5 30 42.5C31.3806 42.5 32.4999 41.3806 32.5 40V32.5H40C41.3806 32.5 42.4999 31.3806 42.5 30C42.5 28.6193 41.3807 27.5 40 27.5H32.5V20C32.5 18.6193 31.3807 17.5 30 17.5Z" fill="url(#paint0_linear_1979_13573)"/>
<defs>
<linearGradient id="paint0_linear_1979_13573" x1="5" y1="30" x2="55" y2="30" gradientUnits="userSpaceOnUse">
<stop stop-color="#B732FF"/>
<stop offset="1" stop-color="#EC09F8"/>
</linearGradient>
</defs>
</svg>
