<svg width="40" height="41" viewBox="0 0 40 41" fill="none" xmlns="http://www.w3.org/2000/svg">
<path d="M3.90967 38.0197L23.235 30.0729C23.7643 29.8529 23.95 29.2067 23.6268 28.6705C22.7262 27.1513 20.8356 24.2021 18.4363 21.803C16.1126 19.4794 13.2939 17.7058 11.8227 16.8534C11.2864 16.544 10.6471 16.7296 10.4339 17.2521L2.47969 36.5967C2.13595 37.4354 3.06406 38.3703 3.90967 38.0197Z" fill="#FF5151"/>
<path d="M11.9458 34.722L7.429 36.5781L3.92969 33.0721L5.78591 28.5625L11.9458 34.722Z" fill="#FCB424"/>
<path d="M20.1215 31.3544L15.6116 33.2105L7.29297 24.8993L9.14919 20.3828L20.1215 31.3544Z" fill="#FCB424"/>
<path d="M19.1856 21.1698C19.1031 21.0874 19.0962 20.9499 19.1718 20.8536L26.6792 11.7656L28.5904 13.6767L19.5018 21.1836C19.4124 21.2592 19.2749 21.2523 19.1856 21.1698Z" fill="#07B7EE"/>
<path d="M20.6284 22.4155C21.7421 21.4463 26.8639 17.246 31.8001 17.9059L31.8482 20.9307C31.8482 20.9307 27.8401 19.0608 20.9446 22.8693C20.8346 22.9311 20.704 22.9105 20.6146 22.8211C20.5046 22.718 20.5046 22.5393 20.6078 22.4293C20.6146 22.4224 20.6215 22.4155 20.6284 22.4155Z" fill="#FF5151"/>
<path d="M17.9424 19.7347C18.9118 18.621 23.1123 13.4996 22.4524 8.56375L19.4274 8.51562C19.4274 8.51562 21.3043 12.5234 17.4887 19.4185C17.4268 19.5285 17.4474 19.6591 17.5368 19.7484C17.6468 19.8584 17.8187 19.8584 17.9287 19.7484C17.9356 19.7416 17.9424 19.7347 17.9424 19.7347Z" fill="#FCB424"/>
<path d="M31.6167 8.79546C30.9154 9.92975 30.9223 11.0503 31.6167 12.1846C31.6235 12.1983 31.6235 12.2189 31.6098 12.2258C31.6029 12.2327 31.5892 12.2327 31.5823 12.2258C30.4411 11.5109 29.3204 11.5246 28.1792 12.2258C28.1655 12.2327 28.1448 12.2327 28.138 12.2189C28.1311 12.2121 28.1311 12.1983 28.138 12.1914C28.853 11.0503 28.8461 9.93662 28.1448 8.78859C28.138 8.77484 28.138 8.75422 28.1517 8.74734C28.1586 8.74047 28.1723 8.74047 28.1861 8.74734C29.3204 9.45541 30.4342 9.45541 31.5754 8.75422C31.5892 8.74047 31.6029 8.74047 31.6167 8.75422C31.6304 8.76109 31.6304 8.78172 31.6167 8.79546Z" fill="#07B7EE"/>
<path d="M37.576 20.2565C36.2491 20.3871 35.3691 21.0746 34.8879 22.3257C34.881 22.3395 34.8673 22.3464 34.8466 22.3395C34.8329 22.3326 34.826 22.3257 34.826 22.312C34.6954 20.9715 34.0079 20.0915 32.7567 19.6172C32.7429 19.6103 32.7361 19.5966 32.7429 19.576C32.7498 19.5622 32.7567 19.5553 32.7704 19.5553C34.111 19.4316 34.991 18.7442 35.4723 17.493C35.4791 17.4793 35.4929 17.4724 35.5135 17.4793C35.5273 17.4861 35.5341 17.493 35.5341 17.5068C35.6648 18.8404 36.3454 19.7203 37.5897 20.2015C37.6035 20.2084 37.6103 20.229 37.6035 20.2428C37.5897 20.2497 37.5829 20.2565 37.576 20.2565Z" fill="#FF5151"/>
<path d="M20.244 2.92863C20.1065 4.2554 19.4259 5.1422 18.1746 5.61653C18.1609 5.62341 18.154 5.63716 18.1609 5.65778C18.1678 5.67153 18.1747 5.6784 18.1884 5.6784C19.529 5.80214 20.409 6.49646 20.8834 7.74761C20.8902 7.76136 20.904 7.76823 20.9246 7.76136C20.9384 7.75448 20.9452 7.74761 20.9452 7.73386C21.069 6.39335 21.7565 5.51342 23.0077 5.03221C23.0214 5.02533 23.0283 5.01158 23.0214 4.99096C23.0146 4.97721 23.0077 4.97034 22.9939 4.97034C21.6602 4.83972 20.7802 4.15916 20.299 2.91488C20.2921 2.90113 20.2784 2.89426 20.2646 2.90113C20.2509 2.90801 20.244 2.91488 20.244 2.92863Z" fill="#FCB424"/>
<path d="M29.9511 26.2023L29.7723 26.876C29.7517 26.9447 29.7723 27.0272 29.8273 27.0753L30.3223 27.5634C30.4048 27.6459 30.4048 27.7696 30.3292 27.8521C30.3017 27.8796 30.2673 27.9002 30.2329 27.9071L29.5592 28.0859C29.4836 28.1065 29.4286 28.1615 29.4148 28.2302L29.2361 28.9039C29.2086 29.0139 29.0986 29.0826 28.9886 29.0551C28.9473 29.0483 28.913 29.0276 28.8923 29.0002L28.4042 28.5121C28.3492 28.4571 28.2736 28.4364 28.2048 28.4571L27.5311 28.6358C27.4211 28.6702 27.3042 28.6014 27.2767 28.4914C27.263 28.4571 27.263 28.4158 27.2767 28.3746L27.4555 27.7009C27.4761 27.6321 27.4555 27.5496 27.4005 27.5015L26.9124 27.0134C26.8299 26.9309 26.8299 26.8072 26.9055 26.7247C26.933 26.6972 26.9674 26.6766 27.0017 26.6697L27.6755 26.491C27.7442 26.4704 27.8061 26.4154 27.8199 26.3466L27.9986 25.6729C28.0261 25.5629 28.1361 25.4942 28.2461 25.5217C28.2805 25.5286 28.3148 25.5492 28.3423 25.5767L28.8373 26.0648C28.8923 26.1198 28.968 26.1404 29.0367 26.1198L29.7104 25.941C29.8204 25.9067 29.9373 25.9754 29.9648 26.0785C29.9579 26.1266 29.9579 26.1679 29.9511 26.2023Z" fill="#FCB424"/>
<path d="M15.206 11.4532L15.0272 12.1269C15.0066 12.1956 15.0272 12.2781 15.0822 12.3262L15.5704 12.8212C15.6529 12.9037 15.6529 13.0274 15.5772 13.1099C15.5497 13.1374 15.5154 13.1581 15.481 13.1649L14.8072 13.3437C14.7385 13.3643 14.6766 13.4193 14.6629 13.488L14.4841 14.1617C14.4566 14.2717 14.3466 14.3405 14.2366 14.313C14.2023 14.3061 14.1679 14.2855 14.1404 14.258L13.6523 13.7699C13.5973 13.7149 13.5216 13.6943 13.4529 13.7149L12.7792 13.8936C12.6692 13.928 12.5523 13.8592 12.5248 13.7561C12.511 13.7218 12.511 13.6805 12.5248 13.6393L12.7035 12.9656C12.7242 12.8968 12.7035 12.8143 12.6485 12.7662L12.1604 12.2781C12.0779 12.2025 12.0779 12.0719 12.1535 11.9894C12.181 11.9619 12.2154 11.9413 12.2498 11.9344L12.9235 11.7557C12.9923 11.735 13.0542 11.6801 13.0679 11.6044L13.2466 10.9307C13.2741 10.8207 13.3841 10.752 13.4941 10.7795C13.5285 10.7864 13.5629 10.807 13.5904 10.8345L14.0785 11.3295C14.1335 11.3845 14.2091 11.4051 14.2779 11.3845L14.9516 11.2057C15.0616 11.1713 15.1785 11.2401 15.206 11.3501C15.2129 11.3776 15.2129 11.4188 15.206 11.4532Z" fill="#FF5151"/>
</svg>
