<svg width="60" height="64" viewBox="0 0 60 64" fill="none" xmlns="http://www.w3.org/2000/svg">
<g filter="url(#filter0_d_19913_517525)">
<path d="M26.9882 13.124C26.9882 12.1257 26.1789 11.3164 25.1806 11.3164C24.1823 11.3164 23.373 12.1257 23.373 13.124V17.9443C23.373 18.9426 24.1823 19.7519 25.1806 19.7519C26.1789 19.7519 26.9882 18.9426 26.9882 17.9443V13.124Z" fill="#656565"/>
<path d="M36.6287 13.124C36.6287 12.1257 35.8195 11.3164 34.8211 11.3164C33.8228 11.3164 33.0135 12.1257 33.0135 13.124V17.9443C33.0135 18.9426 33.8228 19.7519 34.8211 19.7519C35.8195 19.7519 36.6287 18.9426 36.6287 17.9443V13.124Z" fill="#656565"/>
<path fill-rule="evenodd" clip-rule="evenodd" d="M25.0553 4.08594C22.8898 4.08587 21.084 4.08581 19.6506 4.27854C18.1375 4.48197 16.7714 4.92946 15.6737 6.02721C14.5759 7.12496 14.1284 8.49102 13.925 10.0041C13.7323 11.4376 13.7323 13.2433 13.7324 15.4088L13.7324 21.6142C9.14035 23.0803 5.61148 26.8453 4.47475 31.5801C4.44961 31.6848 4.42616 31.7902 4.40429 31.8967C4.09142 33.4194 4.09158 35.2602 4.09183 38.1777L4.09182 38.7228C4.09145 41.8047 4.09123 43.6834 4.47475 45.2808C5.69129 50.3481 9.64772 54.3045 14.715 55.5211C16.3125 55.9046 18.1912 55.9044 21.2731 55.904H38.7287C41.8106 55.9044 43.6893 55.9046 45.2867 55.5211C50.354 54.3045 54.3104 50.3481 55.527 45.2808C55.9105 43.6834 55.9103 41.8047 55.9099 38.7227L55.9099 38.2052C55.9101 35.4012 55.9102 33.5919 55.6403 32.1175C55.607 31.9356 55.5694 31.7569 55.527 31.5801C54.3902 26.8453 50.8614 23.0803 46.2693 21.6142V15.4088C46.2694 13.2433 46.2694 11.4376 46.0767 10.0041C45.8733 8.49103 45.4258 7.12496 44.3281 6.02721C43.2303 4.92946 41.8642 4.48197 40.3512 4.27854C38.9177 4.08582 37.112 4.08587 34.9466 4.08594H25.0553ZM21.3344 20.9569C19.7169 20.9568 18.4303 20.9567 17.3476 21.0088V15.5341C17.3476 13.2107 17.3515 11.65 17.508 10.4858C17.6575 9.37363 17.9159 8.89763 18.23 8.58355C18.5441 8.26947 19.0201 8.01105 20.1323 7.86152C21.2965 7.705 22.8572 7.70116 25.1806 7.70116L34.8211 7.70116C37.1445 7.70116 38.7053 7.705 39.8694 7.86152C40.9816 8.01105 41.4576 8.26947 41.7717 8.58355C42.0858 8.89763 42.3442 9.37363 42.4937 10.4858C42.6503 11.65 42.6541 13.2107 42.6541 15.5341V21.0088C41.5714 20.9567 40.2849 20.9568 38.6674 20.9569H21.3344ZM15.8732 24.7882C16.9834 24.58 18.44 24.5721 21.5654 24.5721L38.4364 24.5721C41.5617 24.5721 43.0183 24.58 44.1285 24.7882C44.2378 24.8087 44.3421 24.831 44.4428 24.8552C47.6908 25.6349 50.3213 27.9377 51.5491 30.9782L49.2485 31.3415C37.2859 33.2303 25.1047 33.2773 13.1279 31.4808L8.5303 30.7912C9.7891 27.8434 12.3779 25.6189 15.5589 24.8552C15.6596 24.831 15.764 24.8087 15.8732 24.7882ZM49.8123 34.9125L52.2539 34.527C52.2923 35.4621 52.2947 36.6865 52.2947 38.4305C52.2947 41.8959 52.2821 43.3105 52.0117 44.4369C51.1125 48.1823 48.1881 51.1066 44.4428 52.0058C43.3164 52.2762 41.9018 52.2888 38.4364 52.2888H21.5654C18.1 52.2888 16.6854 52.2762 15.5589 52.0058C11.8136 51.1066 8.88926 48.1823 7.99007 44.4369C7.71964 43.3105 7.70705 41.8959 7.70705 38.4305C7.70705 36.5596 7.71016 35.2869 7.75668 34.3308L12.5916 35.056C24.9332 36.9072 37.4854 36.8588 49.8123 34.9125Z" fill="#656565"/>
</g>
<defs>
<filter id="filter0_d_19913_517525" x="0.0917969" y="4.08594" width="59.8184" height="59.8203" filterUnits="userSpaceOnUse" color-interpolation-filters="sRGB">
<feFlood flood-opacity="0" result="BackgroundImageFix"/>
<feColorMatrix in="SourceAlpha" type="matrix" values="0 0 0 0 0 0 0 0 0 0 0 0 0 0 0 0 0 0 127 0" result="hardAlpha"/>
<feOffset dy="4"/>
<feGaussianBlur stdDeviation="2"/>
<feComposite in2="hardAlpha" operator="out"/>
<feColorMatrix type="matrix" values="0 0 0 0 0 0 0 0 0 0 0 0 0 0 0 0 0 0 0.25 0"/>
<feBlend mode="normal" in2="BackgroundImageFix" result="effect1_dropShadow_19913_517525"/>
<feBlend mode="normal" in="SourceGraphic" in2="effect1_dropShadow_19913_517525" result="shape"/>
</filter>
</defs>
</svg>
