<svg width="60" height="60" viewBox="0 0 60 60" fill="none" xmlns="http://www.w3.org/2000/svg">
<path d="M42.5032 46.0697C40.6751 46.0696 38.8692 45.6684 37.2128 44.8944C35.5565 44.1205 34.0901 42.9926 32.9169 41.5903C34.5103 45.2019 36.4002 48.6751 38.5673 51.9744C39.3923 53.2247 38.4958 55 37.0029 55H23.002C21.5055 55 20.609 53.2247 21.4376 51.9744C23.6047 48.6751 25.4946 45.2019 27.088 41.5903C25.7245 43.2201 23.9681 44.4753 21.9847 45.2376C20.0013 45.9998 17.8564 46.2439 15.7525 45.9467C13.6486 45.6495 11.6552 44.8208 9.96043 43.539C8.26572 42.2572 6.92565 40.5645 6.06678 38.6208C5.20791 36.6771 4.85858 34.5465 5.05179 32.4303C5.245 30.3141 5.97437 28.282 7.17101 26.526C8.36766 24.77 9.99209 23.348 11.8909 22.3944C13.7897 21.4408 15.9002 20.9869 18.0231 21.0757C17.4666 19.2096 17.3537 17.2393 17.6933 15.3218C18.0329 13.4043 18.8156 11.5927 19.9792 10.0313C21.1427 8.46989 22.6548 7.2019 24.395 6.32839C26.1352 5.45488 28.0554 5 30.0025 5C31.9495 5 33.8697 5.45488 35.6099 6.32839C37.3501 7.2019 38.8622 8.46989 40.0258 10.0313C41.1893 11.5927 41.972 13.4043 42.3116 15.3218C42.6512 17.2393 42.5383 19.2096 41.9818 21.0757C43.6436 21.0068 45.3024 21.2703 46.8611 21.8508C48.4198 22.4312 49.847 23.3169 51.0592 24.4559C52.2713 25.595 53.2439 26.9645 53.9202 28.4843C54.5964 30.004 54.9626 31.6435 54.9973 33.3065C55.032 34.9696 54.7345 36.6229 54.1222 38.1696C53.51 39.7162 52.5953 41.1251 51.4317 42.3137C50.2682 43.5024 48.8791 44.4468 47.346 45.0918C45.8129 45.7367 44.1665 46.0692 42.5032 46.0697Z" fill="url(#paint0_linear_2998_3358)"/>
<defs>
<linearGradient id="paint0_linear_2998_3358" x1="30" y1="5" x2="30" y2="55" gradientUnits="userSpaceOnUse">
<stop stop-color="#FFAB62"/>
<stop offset="1" stop-color="#FF7410"/>
</linearGradient>
</defs>
</svg>
