<svg width="81" height="80" viewBox="0 0 81 80" fill="none" xmlns="http://www.w3.org/2000/svg">
<path d="M62.8663 63.4002C60.0996 67.5336 57.1663 71.5669 52.6996 71.6335C48.2329 71.7336 46.7996 69.0002 41.7329 69.0002C36.6329 69.0002 35.0663 71.5669 30.8328 71.7336C26.4662 71.9002 23.1662 67.3335 20.3662 63.3002C14.6662 55.0669 10.2995 39.9002 16.1662 29.7002C19.0662 24.6336 24.2662 21.4336 29.8995 21.3336C34.1663 21.2669 38.2329 24.2336 40.8663 24.2336C43.4663 24.2336 48.3996 20.6669 53.5663 21.2002C55.7329 21.3002 61.7996 22.0669 65.6996 27.8002C65.3996 28.0002 58.4663 32.0669 58.5329 40.5002C58.6329 50.5669 67.3663 53.9336 67.4663 53.9669C67.3663 54.2002 66.0662 58.7669 62.8663 63.4002ZM43.8329 10.0669C46.2663 7.30023 50.2996 5.20023 53.6329 5.06689C54.0663 8.96689 52.4996 12.9002 50.1663 15.7002C47.8663 18.5336 44.0663 20.7336 40.3329 20.4336C39.8329 16.6002 41.6996 12.6002 43.8329 10.0669Z" fill="#34C759"/>
</svg>
