<svg width="48" height="48" viewBox="0 0 48 48" fill="none" xmlns="http://www.w3.org/2000/svg">
<path d="M8.12215 40.4328L9.0626 39.1384L9.0626 39.1384L8.12215 40.4328ZM5.90983 38.2205L4.6154 39.1609L5.90983 38.2205ZM35.8778 40.4328L34.9374 39.1384L34.9374 39.1384L35.8778 40.4328ZM38.0902 38.2205L36.7957 37.28H36.7957L38.0902 38.2205ZM5.90983 10.4648L4.6154 9.52431H4.6154L5.90983 10.4648ZM8.12215 8.25245L9.0626 9.54688L8.12215 8.25245ZM18.0192 7.95692C18.9028 7.94633 19.6105 7.22145 19.5999 6.33786C19.5893 5.45426 18.8644 4.74656 17.9808 4.75715L18.0192 7.95692ZM41.5855 28.3618C41.5961 27.4782 40.8884 26.7533 40.0048 26.7427C39.1212 26.7321 38.3963 27.4399 38.3857 28.3234L41.5855 28.3618ZM23.5951 32.3515L23.4184 30.7613L23.5951 32.3515ZM15.3555 31.7566L14.2242 32.888H14.2242L15.3555 31.7566ZM14.7606 23.517L16.3508 23.6937L14.7606 23.517ZM17.0548 18.7436L15.9234 17.6122L17.0548 18.7436ZM15.2859 20.8314L13.8438 20.1383L15.2859 20.8314ZM28.3685 30.0573L29.4999 31.1887L28.3685 30.0573ZM26.2807 31.8263L26.9738 33.2683L26.2807 31.8263ZM22 42.3426V40.7426C18.2146 40.7426 15.5041 40.7404 13.4069 40.5132C11.3395 40.2892 10.0587 39.8621 9.0626 39.1384L8.12215 40.4328L7.18169 41.7272C8.81423 42.9133 10.7226 43.4411 13.0622 43.6946C15.3718 43.9448 18.2859 43.9426 22 43.9426V42.3426ZM4 24.3426H2.4C2.4 28.0567 2.3978 30.9708 2.64804 33.2804C2.90152 35.62 3.4293 37.5284 4.6154 39.1609L5.90983 38.2205L7.20426 37.28C6.48053 36.2839 6.0534 35.0031 5.82942 32.9358C5.6022 30.8385 5.6 28.128 5.6 24.3426H4ZM8.12215 40.4328L9.0626 39.1384C8.34949 38.6203 7.72237 37.9931 7.20426 37.28L5.90983 38.2205L4.6154 39.1609C5.33089 40.1457 6.19691 41.0117 7.18169 41.7272L8.12215 40.4328ZM22 42.3426V43.9426C25.7141 43.9426 28.6282 43.9448 30.9378 43.6946C33.2774 43.4411 35.1858 42.9133 36.8183 41.7272L35.8778 40.4328L34.9374 39.1384C33.9413 39.8621 32.6604 40.2892 30.5931 40.5132C28.4959 40.7404 25.7854 40.7426 22 40.7426V42.3426ZM38.0902 38.2205L36.7957 37.28C36.2776 37.9931 35.6505 38.6203 34.9374 39.1384L35.8778 40.4328L36.8183 41.7272C37.8031 41.0117 38.6691 40.1457 39.3846 39.1609L38.0902 38.2205ZM4 24.3426H5.6C5.6 20.5573 5.6022 17.8467 5.82942 15.7495C6.0534 13.6822 6.48053 12.4013 7.20426 11.4052L5.90983 10.4648L4.6154 9.52431C3.4293 11.1568 2.90152 13.0652 2.64804 15.4048C2.3978 17.7144 2.4 20.6285 2.4 24.3426H4ZM8.12215 8.25245L7.18169 6.95802C6.19691 7.67351 5.33089 8.53954 4.6154 9.52431L5.90983 10.4648L7.20426 11.4052C7.72237 10.6921 8.34949 10.065 9.0626 9.54688L8.12215 8.25245ZM18 6.35703L17.9808 4.75715C13.1327 4.81526 9.76872 5.07844 7.18169 6.95802L8.12215 8.25245L9.0626 9.54688C10.7017 8.35601 13.0126 8.01693 18.0192 7.95692L18 6.35703ZM39.9856 28.3426L38.3857 28.3234C38.3257 33.33 37.9866 35.6409 36.7957 37.28L38.0902 38.2205L39.3846 39.1609C41.2642 36.5739 41.5274 33.2099 41.5855 28.3618L39.9856 28.3426ZM39.1121 19.3137L37.9808 18.1823L27.2371 28.9259L28.3685 30.0573L29.4999 31.1887L40.2435 20.4451L39.1121 19.3137ZM17.0548 18.7436L18.1862 19.875L28.9298 9.13137L27.7984 8L26.667 6.86863L15.9234 17.6122L17.0548 18.7436ZM23.5951 32.3515L23.4184 30.7613C21.0754 31.0217 19.4912 31.1937 18.3167 31.1558C17.1851 31.1192 16.7537 30.892 16.4869 30.6252L15.3555 31.7566L14.2242 32.888C15.3168 33.9805 16.7118 34.3056 18.2134 34.3541C19.6722 34.4012 21.5281 34.191 23.7718 33.9417L23.5951 32.3515ZM14.7606 23.517L13.1704 23.3403C12.9211 25.584 12.7109 27.44 12.758 28.8987C12.8065 30.4004 13.1316 31.7954 14.2242 32.888L15.3555 31.7566L16.4869 30.6252C16.2201 30.3584 15.9929 29.927 15.9563 28.7954C15.9184 27.6209 16.0905 26.0368 16.3508 23.6937L14.7606 23.517ZM17.0548 18.7436L15.9234 17.6122C15.018 18.5177 14.2842 19.222 13.8438 20.1383L15.2859 20.8314L16.728 21.5245C16.8777 21.2129 17.1265 20.9347 18.1862 19.875L17.0548 18.7436ZM14.7606 23.517L16.3508 23.6937C16.5163 22.2042 16.5782 21.8362 16.728 21.5245L15.2859 20.8314L13.8438 20.1383C13.4034 21.0546 13.3118 22.0677 13.1704 23.3403L14.7606 23.517ZM28.3685 30.0573L27.2371 28.9259C26.1774 29.9857 25.8993 30.2344 25.5876 30.3842L26.2807 31.8263L26.9738 33.2683C27.8901 32.8279 28.5945 32.0941 29.4999 31.1887L28.3685 30.0573ZM23.5951 32.3515L23.7718 33.9417C25.0444 33.8003 26.0575 33.7087 26.9738 33.2683L26.2807 31.8263L25.5876 30.3842C25.2759 30.534 24.9079 30.5958 23.4184 30.7613L23.5951 32.3515ZM39.1121 8L37.9808 9.13137C39.3461 10.4967 40.2538 11.4093 40.8401 12.1776C41.3982 12.9091 41.5121 13.3189 41.5121 13.6569H43.1121H44.7121C44.7121 12.3379 44.1594 11.2527 43.3842 10.2366C42.6371 9.2574 41.5448 8.16998 40.2435 6.86863L39.1121 8ZM39.1121 19.3137L40.2435 20.4451C41.5448 19.1437 42.6371 18.0563 43.3842 17.0771C44.1594 16.061 44.7121 14.9758 44.7121 13.6569H43.1121H41.5121C41.5121 13.9948 41.3982 14.4046 40.8401 15.1361C40.2538 15.9044 39.3461 16.817 37.9808 18.1823L39.1121 19.3137ZM39.1121 8L40.2435 6.86863C38.9421 5.56728 37.8547 4.47505 36.8755 3.72796C35.8594 2.95271 34.7742 2.4 33.4553 2.4V4V5.6C33.7932 5.6 34.203 5.71396 34.9345 6.27203C35.7029 6.85828 36.6154 7.76605 37.9808 9.13137L39.1121 8ZM27.7984 8L28.9298 9.13137C30.2951 7.76605 31.2077 6.85828 31.976 6.27203C32.7075 5.71396 33.1173 5.6 33.4553 5.6V4V2.4C32.1363 2.4 31.0511 2.95271 30.035 3.72796C29.0558 4.47505 27.9684 5.56728 26.667 6.86863L27.7984 8ZM39.1121 19.3137L40.2435 18.1823L28.9298 6.86863L27.7984 8L26.667 9.13137L37.9808 20.4451L39.1121 19.3137Z" fill="#0C0C0C"/>
</svg>
