<svg width="41" height="40" viewBox="0 0 41 40" fill="none" xmlns="http://www.w3.org/2000/svg">
<path d="M20.501 3.3335C29.7057 3.3335 37.168 10.7957 37.168 20.0005C37.1677 29.205 29.7056 36.6665 20.501 36.6665C11.2964 36.6665 3.83425 29.205 3.83398 20.0005C3.83398 10.7957 11.2962 3.3335 20.501 3.3335ZM20.501 11.6665C19.5805 11.6665 18.834 12.413 18.834 13.3335V18.3335H13.834C12.9137 18.3337 12.168 19.0801 12.168 20.0005C12.1682 20.9206 12.9138 21.6663 13.834 21.6665H18.834V26.6665C18.834 27.587 19.5805 28.3335 20.501 28.3335C21.4215 28.3335 22.168 27.587 22.168 26.6665V21.6665H27.168C28.0881 21.6663 28.8337 20.9206 28.834 20.0005C28.834 19.0801 28.0883 18.3337 27.168 18.3335H22.168V13.3335C22.168 12.413 21.4215 11.6665 20.501 11.6665Z" fill="white"/>
</svg>
