<svg width="44" height="44" viewBox="0 0 44 44" fill="none" xmlns="http://www.w3.org/2000/svg">
<path d="M21.9993 41.0669C27.0561 41.0669 31.9058 39.0581 35.4815 35.4824C39.0572 31.9067 41.066 27.0571 41.066 22.0003C41.066 16.9435 39.0572 12.0938 35.4815 8.51809C31.9058 4.9424 27.0561 2.93359 21.9993 2.93359C16.9425 2.93359 12.0928 4.9424 8.51712 8.51809C4.94142 12.0938 2.93262 16.9435 2.93262 22.0003C2.93262 27.0571 4.94142 31.9067 8.51712 35.4824C12.0928 39.0581 16.9425 41.0669 21.9993 41.0669ZM18.8826 18.4253C18.8826 20.3987 17.8149 22.0003 16.4993 22.0003C15.1837 22.0003 14.116 20.3987 14.116 18.4253C14.116 16.4519 15.1837 14.8503 16.4993 14.8503C17.8149 14.8503 18.8826 16.4519 18.8826 18.4253ZM13.1452 27.2016C13.4189 27.0436 13.7442 27.0008 14.0494 27.0826C14.3547 27.1644 14.615 27.3641 14.773 27.6378C15.5053 28.9062 16.5587 29.9594 17.8272 30.6916C19.0957 31.4237 20.5346 31.809 21.9993 31.8086C23.4639 31.809 24.9028 31.4237 26.1714 30.6916C27.4399 29.9594 28.4932 28.9062 29.2256 27.6378C29.3032 27.5011 29.4072 27.3812 29.5314 27.2849C29.6556 27.1887 29.7976 27.1179 29.9493 27.0767C30.1009 27.0355 30.2592 27.0248 30.4151 27.045C30.5709 27.0653 30.7212 27.1162 30.8573 27.1947C30.9934 27.2733 31.1126 27.378 31.2081 27.5029C31.3036 27.6277 31.3734 27.7702 31.4136 27.9222C31.4537 28.0741 31.4635 28.2325 31.4422 28.3882C31.4209 28.5439 31.369 28.6939 31.2895 28.8294C30.348 30.4601 28.9938 31.8142 27.363 32.7556C25.7322 33.6969 23.8823 34.1923 21.9993 34.1919C20.1163 34.1923 18.2664 33.6969 16.6356 32.7556C15.0048 31.8142 13.6505 30.4601 12.7091 28.8294C12.551 28.5557 12.5082 28.2305 12.59 27.9252C12.6718 27.6199 12.8715 27.3596 13.1452 27.2016ZM27.4993 22.0003C26.1837 22.0003 25.116 20.3987 25.116 18.4253C25.116 16.4519 26.1837 14.8503 27.4993 14.8503C28.8149 14.8503 29.8826 16.4519 29.8826 18.4253C29.8826 20.3987 28.8149 22.0003 27.4993 22.0003Z" fill="white"/>
</svg>
