<svg width="60" height="60" viewBox="0 0 60 60" fill="none" xmlns="http://www.w3.org/2000/svg">
<path d="M45.1732 21.2746L23.7732 10.5746C9.39822 3.3746 3.49822 9.2746 10.6982 23.6496L12.8732 27.9996C13.4982 29.2746 13.4982 30.7496 12.8732 32.0246L10.6982 36.3496C3.49822 50.7246 9.37322 56.6246 23.7732 49.4246L45.1732 38.7246C54.7732 33.9246 54.7732 26.0746 45.1732 21.2746ZM37.0982 31.8746H23.5982C22.5732 31.8746 21.7232 31.0246 21.7232 29.9996C21.7232 28.9746 22.5732 28.1246 23.5982 28.1246H37.0982C38.1232 28.1246 38.9732 28.9746 38.9732 29.9996C38.9732 31.0246 38.1232 31.8746 37.0982 31.8746Z" fill="url(#paint0_linear_517_7683)"/>
<defs>
<linearGradient id="paint0_linear_517_7683" x1="7.62207" y1="29.9996" x2="52.3732" y2="29.9996" gradientUnits="userSpaceOnUse">
<stop stop-color="#B732FF"/>
<stop offset="1" stop-color="#EC09F8"/>
</linearGradient>
</defs>
</svg>
