<svg width="48" height="48" viewBox="0 0 48 48" fill="none" xmlns="http://www.w3.org/2000/svg">
<path d="M24.0002 31.2002C28.8622 31.2002 32.8002 27.4876 32.8002 22.9039V11.4965C32.8002 6.91279 28.8622 3.2002 24.0002 3.2002C19.1382 3.2002 15.2002 6.91279 15.2002 11.4965V22.9039C15.2002 27.4876 19.1382 31.2002 24.0002 31.2002Z" stroke="#5D5D5D" stroke-width="3.2" stroke-linecap="round" stroke-linejoin="round"/>
<path d="M8.3999 18.4004V21.8913C8.3999 30.557 15.3944 37.6004 23.9999 37.6004C32.6054 37.6004 39.5999 30.557 39.5999 21.8913V18.4004" stroke="#5D5D5D" stroke-width="3.2" stroke-linecap="round" stroke-linejoin="round"/>
<path d="M21.2002 12.8C23.0131 11.7333 24.9872 11.7333 26.8002 12.8" stroke="#5D5D5D" stroke-width="3.2" stroke-linecap="round" stroke-linejoin="round"/>
<path d="M22.7998 16.7998C23.5899 16.7998 24.4097 16.7998 25.1998 16.7998" stroke="#5D5D5D" stroke-width="3.2" stroke-linecap="round" stroke-linejoin="round"/>
<path d="M23.6001 38.4004V44.8004" stroke="#5D5D5D" stroke-width="3.2" stroke-linecap="round" stroke-linejoin="round"/>
</svg>
