<svg width="40" height="40" viewBox="0 0 40 40" fill="none" xmlns="http://www.w3.org/2000/svg">
<path fill-rule="evenodd" clip-rule="evenodd" d="M14.0587 4.59422C15.7643 -1.38232 24.2343 -1.38232 25.9399 4.59422C26.4846 6.50282 28.4454 7.63492 30.3707 7.15234C36.3993 5.64118 40.6343 12.9764 36.3113 17.4417C34.9307 18.8678 34.9307 21.132 36.3113 22.558C40.6343 27.0234 36.3993 34.3585 30.3707 32.8474C28.4454 32.3648 26.4846 33.4969 25.9399 35.4055C24.2343 41.382 15.7643 41.382 14.0587 35.4055C13.514 33.4969 11.5532 32.3648 9.62792 32.8474C3.59927 34.3585 -0.635694 27.0234 3.68733 22.558C5.06788 21.132 5.06788 18.8678 3.68733 17.4417C-0.635692 12.9764 3.59927 5.64118 9.62792 7.15234C11.5532 7.63492 13.514 6.50282 14.0587 4.59422ZM27.6263 15.8001C28.0682 15.2698 27.9966 14.4815 27.4662 14.0396C26.9359 13.5976 26.1477 13.6693 25.7057 14.1996L19.9331 21.1268C19.3152 21.8683 18.9357 22.319 18.623 22.6014C18.478 22.7323 18.392 22.7845 18.3508 22.8044C18.3424 22.8085 18.3365 22.8109 18.3327 22.8123C18.3289 22.8109 18.3229 22.8085 18.3146 22.8044C18.2733 22.7845 18.1873 22.7323 18.0424 22.6014C17.7297 22.319 17.3502 21.8683 16.7322 21.1268L14.293 18.1996C13.851 17.6693 13.0628 17.5976 12.5325 18.0396C12.0021 18.4815 11.9305 19.2698 12.3724 19.8001L14.8649 22.7911C15.4123 23.4482 15.9059 24.0405 16.3669 24.4568C16.8684 24.9097 17.5002 25.3131 18.3327 25.3131C19.1652 25.3131 19.7969 24.9097 20.2985 24.4568C20.7595 24.0405 21.253 23.4482 21.8005 22.7911L27.6263 15.8001Z" fill="#F9EB7B"/>
</svg>
