<svg width="60" height="60" viewBox="0 0 60 60" fill="none" xmlns="http://www.w3.org/2000/svg">
<path d="M51.3568 29.3469C51.4968 29.5482 51.5827 29.7925 51.5827 30.0565C51.5827 30.5856 51.25 31.0349 50.7811 31.208C48.8832 32.5534 38.7261 40.178 31.1199 54.2045C30.9701 54.5777 30.6559 54.8772 30.2606 54.9669C30.1575 54.9926 30.0544 55 29.9512 55C29.5351 55 29.1459 54.8085 28.9299 54.4439C28.8722 54.358 28.8268 54.2647 28.7924 54.164C27.8054 52.249 21.2648 40.1424 9.17048 31.1392C8.731 30.9526 8.42411 30.5168 8.42411 30.0086C8.42411 29.9988 8.42411 29.989 8.42411 29.9816C8.4192 29.7483 8.47935 29.5139 8.60702 29.3076C8.75187 29.0744 8.96916 28.8988 9.21959 28.8043C10.7897 27.7069 21.0647 20.1841 28.8182 5.9563C28.9385 5.41002 29.4295 5 30.0151 5C30.2557 5 30.4803 5.06997 30.6694 5.18905C30.9309 5.33636 31.131 5.57697 31.2279 5.86791C31.9805 7.35207 38.5174 19.7618 50.9186 28.9492C51.0954 29.0449 51.2476 29.1812 51.3568 29.3469Z" fill="url(#paint0_linear_2998_4750)"/>
<defs>
<linearGradient id="paint0_linear_2998_4750" x1="30.0033" y1="5" x2="30.0033" y2="55" gradientUnits="userSpaceOnUse">
<stop stop-color="#03C6FE"/>
<stop offset="1" stop-color="#0686F2"/>
</linearGradient>
</defs>
</svg>
