<svg width="60" height="60" viewBox="0 0 60 60" fill="none" xmlns="http://www.w3.org/2000/svg">
<path d="M28.6762 16.7424L33.3166 12.102C34.2741 11.1436 35.4109 10.3833 36.6623 9.8645C37.9137 9.34565 39.255 9.07844 40.6097 9.07813C41.9643 9.07781 43.3058 9.3444 44.5574 9.86266C45.809 10.3809 46.9462 11.1407 47.9041 12.0986C48.862 13.0565 49.6218 14.1937 50.14 15.4453C50.6583 16.6969 50.9249 18.0384 50.9246 19.393C50.9242 20.7477 50.657 22.089 50.1382 23.3404C49.6193 24.5917 48.859 25.7286 47.9007 26.6861L41.2716 33.3152C40.314 34.2728 39.1771 35.0324 37.926 35.5507C36.6748 36.0689 35.3338 36.3356 33.9795 36.3356C32.6253 36.3356 31.2843 36.0689 30.0331 35.5507C28.7819 35.0324 27.6451 34.2728 26.6875 33.3152" stroke="#656565" stroke-width="3.75" stroke-linecap="round" stroke-linejoin="round"/>
<path d="M31.3284 43.2651L26.688 47.9055C25.7306 48.8639 24.5937 49.6242 23.3423 50.143C22.091 50.6619 20.7496 50.9291 19.395 50.9294C18.0403 50.9297 16.6989 50.6631 15.4473 50.1449C14.1957 49.6266 13.0584 48.8668 12.1005 47.9089C11.1426 46.951 10.3829 45.8138 9.86461 44.5622C9.34635 43.3106 9.07976 41.9692 9.08008 40.6145C9.08039 39.2598 9.34761 37.9185 9.86645 36.6671C10.3853 35.4158 11.1456 34.2789 12.1039 33.3215L18.7331 26.6923C19.6907 25.7347 20.8275 24.9751 22.0787 24.4569C23.3298 23.9386 24.6708 23.6719 26.0251 23.6719C27.3794 23.6719 28.7204 23.9386 29.9715 24.4569C31.2227 24.9751 32.3595 25.7347 33.3171 26.6923" stroke="#656565" stroke-width="3.75" stroke-linecap="round" stroke-linejoin="round"/>
</svg>
