<svg width="28" height="28" viewBox="0 0 28 28" fill="none" xmlns="http://www.w3.org/2000/svg">
<path d="M23.1934 3.9668C24.3614 4.34013 24.6542 5.07149 24.6543 5.53809V21.9326C24.6543 23.5658 23.8021 24.2666 22.4023 24.5L17.502 24.9668L12.9668 25.2002C11.0191 25.2002 10.5322 24.1108 10.5322 23.333V4.43262C10.5324 3.31308 11.2625 2.79993 12.4795 2.7998L23.1934 3.9668ZM9.10059 22.3994H4.72852C3.56002 22.3994 3.26768 21.4667 3.26758 21V7C3.26758 5.88 4.24156 5.59961 4.72852 5.59961H9.10059V22.3994ZM14.4697 11.2578C13.9866 11.2578 13.5949 11.6497 13.5947 12.1328V15.8662C13.5948 16.3494 13.9865 16.7412 14.4697 16.7412C14.9528 16.7411 15.3447 16.3493 15.3447 15.8662V12.1328C15.3446 11.6498 14.9528 11.258 14.4697 11.2578Z" fill="#5D5D5D"/>
</svg>
