<svg width="80" height="80" viewBox="0 0 80 80" fill="none" xmlns="http://www.w3.org/2000/svg">
<path d="M70.8206 6.79991C65.9452 2.03857 55.672 4.24546 44.3565 11.4799C43.1808 11.3547 41.9995 11.2908 40.8173 11.2887C23.7416 11.2887 9.89875 24.0426 9.89875 39.775C9.89875 39.925 9.90827 40.0717 9.91112 40.2213C16.8777 28.9666 26.2238 21.172 34.7203 18.681C31.8889 21.1103 29.1865 23.6909 26.6243 26.4121C19.9246 33.5159 14.6605 40.9939 11.1803 47.8943C5.81963 58.5231 4.70411 67.7781 9.18425 72.1536C13.9893 76.8467 24.0403 74.7676 35.1627 67.7771C36.997 68.0893 38.8846 68.2602 40.8168 68.2602C42.1816 68.26 43.5452 68.1767 44.9003 68.0109C57.0882 66.5282 67.0346 58.5047 70.4534 47.8919H49.9222C48.6559 51.734 45.0962 54.5063 40.8944 54.5063C35.6322 54.5063 31.3666 50.1651 31.3666 44.8103V43.8334H71.4167C71.6222 42.5076 71.7345 41.1531 71.7345 39.775C71.7345 27.327 63.0658 16.7515 50.9902 12.875C59.4671 8.03285 66.6949 6.69971 70.1799 10.1023C72.3082 12.1814 72.7568 15.7562 71.7797 20.2339H72.9075C74.2538 14.3766 73.6796 9.59253 70.8206 6.79991ZM33.053 67.354C24.2958 72.5031 16.7874 73.9926 13.2139 70.5029C10.1071 67.4688 10.5781 61.2504 13.839 53.6872C17.9076 60.3708 24.8115 65.3906 33.053 67.354ZM31.378 34.8142C31.4969 29.5649 35.7074 25.3438 40.8944 25.3438C46.0819 25.3438 50.2923 29.5649 50.4108 34.8142H31.378Z" fill="#34C759"/>
</svg>
