<svg width="36" height="36" viewBox="0 0 36 36" fill="none" xmlns="http://www.w3.org/2000/svg">
<path d="M18 3C26.265 3 33 9.735 33 18C33 26.265 26.265 33 18 33C9.735 33 3 26.265 3 18C3 9.735 9.735 3 18 3ZM17.1855 7.46973V9.38867C15.8283 9.48227 14.7281 9.83305 13.8389 10.4648C12.6456 11.2838 12.0605 12.4537 12.0605 13.998C12.0606 15.7295 12.8563 17.0395 14.4941 17.9287L17.1855 18.9121V24.3877C16.4601 24.2941 15.8978 24.0599 15.5 23.6855C14.9619 23.1707 14.658 22.2811 14.5645 21.0645H11.8496C11.99 22.9833 12.5524 24.4107 13.5352 25.3467C14.3776 26.1423 15.5944 26.5871 17.1855 26.7041V28.7637H18.7295V26.7041C20.1567 26.6105 21.3267 26.2596 22.2627 25.6514C23.5263 24.809 24.1582 23.5686 24.1582 21.9072C24.1582 20.199 23.3392 18.8882 21.7246 17.9756C21.583 17.8816 20.5767 17.5072 18.7295 16.8291V11.6816C19.3145 11.7518 19.7828 11.9155 20.1338 12.1729C20.6953 12.5707 21.0461 13.2497 21.1865 14.2324H23.8545C23.6205 12.5245 23.0353 11.284 22.0762 10.5352C21.2572 9.87996 20.1335 9.48227 18.7295 9.38867V7.46973H17.1855ZM18.7295 19.4736C18.8231 19.497 18.8937 19.5206 18.9873 19.5674C20.6017 20.129 21.4209 20.948 21.4209 22.001C21.4208 22.7731 21.0926 23.3816 20.4375 23.8027C19.9695 24.1068 19.3846 24.2941 18.7295 24.3877V19.4736ZM17.1855 16.2441C15.5944 15.6358 14.7989 14.8872 14.7988 13.998C14.7988 13.1323 15.1026 12.5004 15.7344 12.126C16.0854 11.892 16.5771 11.7284 17.1855 11.6582V16.2441Z" fill="url(#paint0_linear_1923_11170)"/>
<defs>
<linearGradient id="paint0_linear_1923_11170" x1="33" y1="18.3846" x2="3" y2="18.3846" gradientUnits="userSpaceOnUse">
<stop stop-color="#FFB60C"/>
<stop offset="1" stop-color="#FF9021"/>
</linearGradient>
</defs>
</svg>
