<svg width="44" height="44" viewBox="0 0 44 44" fill="none" xmlns="http://www.w3.org/2000/svg">
<path d="M22 5.5C31.1127 5.5 38.5 12.8873 38.5 22C38.5 31.1127 31.1127 38.5 22 38.5C19.8052 38.5 17.7104 38.0719 15.7949 37.2939C15.4283 37.1451 15.2449 37.0703 15.0967 37.0371C14.9519 37.0047 14.8447 36.9922 14.6963 36.9922C14.5444 36.9922 14.3787 37.0201 14.0479 37.0752L7.52539 38.1621C6.84247 38.2759 6.50086 38.3334 6.25391 38.2275C6.03775 38.1348 5.86517 37.9622 5.77246 37.7461C5.66662 37.4991 5.72407 37.1575 5.83789 36.4746L6.9248 29.9521C6.97994 29.6213 7.00783 29.4556 7.00781 29.3037C7.00779 29.1553 6.99533 29.0481 6.96289 28.9033C6.92968 28.7551 6.85494 28.5717 6.70605 28.2051C5.92813 26.2896 5.5 24.1948 5.5 22C5.5 12.8873 12.8873 5.5 22 5.5ZM13.9326 19.7998C12.7177 19.7998 11.7325 20.7851 11.7324 22C11.7324 23.215 12.7176 24.2002 13.9326 24.2002C15.1475 24.2 16.1328 23.2149 16.1328 22C16.1327 20.7852 15.1474 19.8 13.9326 19.7998ZM21.999 19.7998C20.7841 19.7998 19.7989 20.7851 19.7988 22C19.7988 23.215 20.784 24.2002 21.999 24.2002C23.214 24.2002 24.1992 23.215 24.1992 22C24.1991 20.7851 23.214 19.7998 21.999 19.7998ZM30.0654 19.7998C28.8506 19.7999 27.8653 20.7852 27.8652 22C27.8652 23.2149 28.8505 24.2001 30.0654 24.2002C31.2804 24.2002 32.2656 23.215 32.2656 22C32.2655 20.7851 31.2804 19.7998 30.0654 19.7998Z" fill="white"/>
</svg>
