<svg width="56" height="56" viewBox="0 0 56 56" fill="none" xmlns="http://www.w3.org/2000/svg">
<path d="M48.5132 29.4165C49.0828 28.9283 49.3676 28.6841 49.472 28.3936C49.5635 28.1387 49.5635 27.8598 49.472 27.6048C49.3676 27.3143 49.0828 27.0702 48.5132 26.5819L28.7481 9.64048C27.7676 8.80003 27.2773 8.3798 26.8623 8.3695C26.5015 8.36055 26.1569 8.51903 25.929 8.79875C25.6667 9.1206 25.6667 9.76632 25.6667 11.0578V21.08C20.6857 21.9514 16.1271 24.4753 12.7393 28.2649C9.04592 32.3964 7.00288 37.7431 7 43.2848V44.7128C9.44846 41.7632 12.5055 39.3778 15.9618 37.7197C19.009 36.2579 22.303 35.392 25.6667 35.1638V44.9407C25.6667 46.2321 25.6667 46.8778 25.929 47.1997C26.1569 47.4794 26.5015 47.6379 26.8623 47.6289C27.2773 47.6186 27.7676 47.1984 28.7481 46.358L48.5132 29.4165Z" fill="url(#paint0_linear_2946_12407)"/>
<defs>
<linearGradient id="paint0_linear_2946_12407" x1="28.2703" y1="8.36914" x2="28.2703" y2="47.6293" gradientUnits="userSpaceOnUse">
<stop stop-color="#9F9E9E"/>
<stop offset="1" stop-color="#5F5E5E"/>
</linearGradient>
</defs>
</svg>
