<svg width="60" height="60" viewBox="0 0 60 60" fill="none" xmlns="http://www.w3.org/2000/svg">
<path d="M55.0407 7.9203C55.0407 6.81573 54.1453 5.9203 53.0407 5.9203C51.9361 5.9203 51.0407 6.81573 51.0407 7.9203H53.0407H55.0407ZM53.0407 19.4397V21.4397C54.1453 21.4397 55.0407 20.5443 55.0407 19.4397H53.0407ZM41.5213 17.4397C40.4167 17.4397 39.5213 18.3351 39.5213 19.4397C39.5213 20.5443 40.4167 21.4397 41.5213 21.4397V19.4397V17.4397ZM50.8934 14.5654C50.1011 13.7958 48.8349 13.8142 48.0652 14.6064C47.2956 15.3987 47.3139 16.6649 48.1062 17.4346L49.4998 16L50.8934 14.5654ZM4 29.9984C4 31.103 4.89543 31.9984 6 31.9984C7.10457 31.9984 8 31.103 8 29.9984H6H4ZM10.5834 15.8923L8.96532 14.7167L10.5834 15.8923ZM22.5827 7.17421L23.2008 9.07633L22.5827 7.17421ZM37.4148 7.17422L38.0328 5.27211L37.4148 7.17422ZM47.7961 17.0679C48.4454 17.9615 49.6961 18.1596 50.5897 17.5103C51.4834 16.8611 51.6815 15.6103 51.0322 14.7167L49.4142 15.8923L47.7961 17.0679ZM4.95891 52.0773C4.95891 53.1818 5.85434 54.0773 6.95891 54.0773C8.06348 54.0773 8.95891 53.1818 8.95891 52.0773H6.95891H4.95891ZM6.95891 40.5579V38.5579C5.85434 38.5579 4.95891 39.4533 4.95891 40.5579H6.95891ZM18.4783 42.5579C19.5829 42.5579 20.4783 41.6624 20.4783 40.5579C20.4783 39.4533 19.5829 38.5579 18.4783 38.5579V40.5579V42.5579ZM55.9997 29.9981C55.9997 28.8935 55.1043 27.9981 53.9997 27.9981C52.8951 27.9981 51.9997 28.8935 51.9997 29.9981H53.9997H55.9997ZM49.4164 44.1042L47.7983 42.9286L49.4164 44.1042ZM37.417 52.8222L38.035 54.7244L37.417 52.8222ZM10.5855 44.1042L12.2036 42.9286L12.1044 42.7921L11.9838 42.6742L10.5855 44.1042ZM53.0407 7.9203H51.0407V19.4397H53.0407H55.0407V7.9203H53.0407ZM53.0407 19.4397V17.4397H41.5213V19.4397V21.4397H53.0407V19.4397ZM53.0407 19.4397L54.4343 18.0051L50.8934 14.5654L49.4998 16L48.1062 17.4346L51.6471 20.8743L53.0407 19.4397ZM6 29.9984H8C8 25.3527 9.47073 20.8263 12.2014 17.0678L10.5834 15.8923L8.96532 14.7167C5.73815 19.1585 4 24.508 4 29.9984H6ZM10.5834 15.8923L12.2014 17.0678C14.9321 13.3094 18.7825 10.5119 23.2008 9.07633L22.5827 7.17421L21.9647 5.2721C16.743 6.96873 12.1925 10.2749 8.96532 14.7167L10.5834 15.8923ZM22.5827 7.17421L23.2008 9.07633C27.6191 7.64073 32.3785 7.64074 36.7968 9.07633L37.4148 7.17422L38.0328 5.27211C32.8111 3.57548 27.1864 3.57548 21.9647 5.2721L22.5827 7.17421ZM37.4148 7.17422L36.7968 9.07633C41.2151 10.5119 45.0655 13.3094 47.7961 17.0679L49.4142 15.8923L51.0322 14.7167C47.805 10.2749 43.2545 6.96873 38.0328 5.27211L37.4148 7.17422ZM6.95891 52.0773H8.95891V40.5579H6.95891H4.95891V52.0773H6.95891ZM6.95891 40.5579V42.5579H18.4783V40.5579V38.5579H6.95891V40.5579ZM53.9997 29.9981H51.9997C51.9997 34.6437 50.529 39.1702 47.7983 42.9286L49.4164 44.1042L51.0344 45.2798C54.2616 40.8379 55.9997 35.4885 55.9997 29.9981H53.9997ZM49.4164 44.1042L47.7983 42.9286C45.0677 46.687 41.2172 49.4845 36.7989 50.9201L37.417 52.8222L38.035 54.7244C43.2567 53.0277 47.8072 49.7216 51.0344 45.2798L49.4164 44.1042ZM37.417 52.8222L36.7989 50.9201C32.3806 52.3557 27.6213 52.3557 23.203 50.9201L22.5849 52.8222L21.9669 54.7244C27.1886 56.421 32.8133 56.421 38.035 54.7244L37.417 52.8222ZM22.5849 52.8222L23.203 50.9201C18.7846 49.4845 14.9342 46.687 12.2036 42.9286L10.5855 44.1042L8.96751 45.2798C12.1947 49.7216 16.7452 53.0277 21.9669 54.7244L22.5849 52.8222ZM10.5855 44.1042L11.9838 42.6742L8.3572 39.1279L6.95891 40.5579L5.56062 41.9878L9.18725 45.5341L10.5855 44.1042Z" fill="currentColor" stroke="currentColor"/>
</svg>
