<svg width="40" height="40" viewBox="0 0 40 40" fill="none" xmlns="http://www.w3.org/2000/svg">
<path d="M28.333 3.33301C32.933 3.33301 36.667 7.05207 36.667 11.6377V23.2764C36.667 27.862 32.933 31.5811 28.333 31.5811H25.833C25.3165 31.5812 24.8166 31.8313 24.5 32.248L22 35.5664C20.9 37.0336 19.1 37.0336 18 35.5664L15.5 32.248C15.2167 31.8813 14.617 31.5812 14.167 31.5811H11.667C7.06699 31.5811 3.33301 27.862 3.33301 23.2764V11.6377C3.33301 7.05207 7.06699 3.33301 11.667 3.33301H28.333ZM16 13.0674C15.1163 13.0674 14.4004 13.7833 14.4004 14.667V21.334C14.4007 22.2173 15.1166 22.9336 16 22.9336C16.8834 22.9336 17.5993 22.2173 17.5996 21.334V14.667C17.5996 13.7833 16.8837 13.0674 16 13.0674ZM24 13.0674C23.1163 13.0674 22.4004 13.7833 22.4004 14.667V21.334C22.4007 22.2173 23.1166 22.9336 24 22.9336C24.8834 22.9336 25.5993 22.2173 25.5996 21.334V14.667C25.5996 13.7833 24.8837 13.0674 24 13.0674Z" fill="white"/>
</svg>
