<svg width="32" height="32" viewBox="0 0 32 32" fill="currentColor" xmlns="http://www.w3.org/2000/svg">
<path d="M8 13.3332V10.6665C8 6.25317 9.33333 2.6665 16 2.6665C22.6667 2.6665 24 6.25317 24 10.6665V13.3332" stroke="currentColor" stroke-width="2.13333" stroke-linecap="round" stroke-linejoin="round"/>
<path d="M16.0003 24.6667C17.8413 24.6667 19.3337 23.1743 19.3337 21.3333C19.3337 19.4924 17.8413 18 16.0003 18C14.1594 18 12.667 19.4924 12.667 21.3333C12.667 23.1743 14.1594 24.6667 16.0003 24.6667Z" stroke="currentColor" stroke-width="2.13333" stroke-linecap="round" stroke-linejoin="round"/>
<path d="M22.667 29.3335H9.33366C4.00033 29.3335 2.66699 28.0002 2.66699 22.6668V20.0002C2.66699 14.6668 4.00033 13.3335 9.33366 13.3335H22.667C28.0003 13.3335 29.3337 14.6668 29.3337 20.0002V22.6668C29.3337 28.0002 28.0003 29.3335 22.667 29.3335Z" stroke="currentColor" stroke-width="2.13333" stroke-linecap="round" stroke-linejoin="round"/>
</svg>
