<svg width="35" height="34" viewBox="0 0 35 34" fill="none" xmlns="http://www.w3.org/2000/svg">
<path fill-rule="evenodd" clip-rule="evenodd" d="M17.4987 33.6693C26.7034 33.6693 34.1654 26.2074 34.1654 17.0026C34.1654 7.79786 26.7034 0.335938 17.4987 0.335938C8.29395 0.335938 0.832031 7.79786 0.832031 17.0026C0.832031 26.2074 8.29395 33.6693 17.4987 33.6693ZM18.7487 12.0026C18.7487 11.3122 18.1891 10.7526 17.4987 10.7526C16.8083 10.7526 16.2487 11.3122 16.2487 12.0026V15.7526H12.4987C11.8083 15.7526 11.2487 16.3123 11.2487 17.0026C11.2487 17.693 11.8083 18.2526 12.4987 18.2526H16.2487V22.0026C16.2487 22.693 16.8083 23.2526 17.4987 23.2526C18.1891 23.2526 18.7487 22.693 18.7487 22.0026V18.2526H22.4987C23.1891 18.2526 23.7487 17.693 23.7487 17.0026C23.7487 16.3123 23.1891 15.7526 22.4987 15.7526H18.7487V12.0026Z" fill="#AEAEB1"/>
</svg>
