<svg width="44" height="44" viewBox="0 0 44 44" fill="none" xmlns="http://www.w3.org/2000/svg">
<path d="M36.5007 16.1337C35.7063 16.1337 35.0748 16.7651 35.0748 17.5596V20.7781C35.0748 27.9892 29.2081 33.8559 21.997 33.8559C14.7859 33.8559 8.91923 27.9892 8.91923 20.7781V17.5392C8.91923 16.7448 8.28775 16.1133 7.49331 16.1133C6.69886 16.1133 6.06738 16.7448 6.06738 17.5392V20.7577C6.06738 29.0485 12.4433 35.8725 20.5711 36.6059V40.9448C20.5711 41.7392 21.2026 42.3707 21.997 42.3707C22.7915 42.3707 23.4229 41.7392 23.4229 40.9448V36.6059C31.5303 35.8929 37.9266 29.0485 37.9266 20.7577V17.5392C37.9063 16.7651 37.2748 16.1337 36.5007 16.1337Z" fill="url(#paint0_linear_2032_12833)"/>
<path d="M22.0003 1.62891C17.0299 1.62891 12.9966 5.66224 12.9966 10.6326V21.0622C12.9966 26.0326 17.0299 30.0659 22.0003 30.0659C26.9707 30.0659 31.004 26.0326 31.004 21.0622V10.6326C31.004 5.66224 26.9707 1.62891 22.0003 1.62891ZM24.6688 15.7863C24.5262 16.3159 24.0577 16.6622 23.5281 16.6622C23.4262 16.6622 23.3244 16.6419 23.2225 16.6215C22.4281 16.3974 21.5929 16.3974 20.7984 16.6215C20.1466 16.8048 19.5151 16.4178 19.3521 15.7863C19.1688 15.1548 19.5558 14.503 20.1873 14.34C21.3892 14.0141 22.6521 14.0141 23.854 14.34C24.4651 14.503 24.8318 15.1548 24.6688 15.7863ZM25.7484 11.8345C25.5651 12.3233 25.117 12.6085 24.6281 12.6085C24.4855 12.6085 24.3632 12.5882 24.2207 12.5474C22.7947 12.0178 21.2058 12.0178 19.7799 12.5474C19.1688 12.7715 18.4762 12.4456 18.2521 11.8345C18.0281 11.2233 18.354 10.5308 18.9651 10.3271C20.9207 9.61409 23.0799 9.61409 25.0355 10.3271C25.6466 10.5511 25.9725 11.2233 25.7484 11.8345Z" fill="url(#paint1_linear_2032_12833)"/>
<defs>
<linearGradient id="paint0_linear_2032_12833" x1="21.997" y1="16.1133" x2="21.997" y2="42.3707" gradientUnits="userSpaceOnUse">
<stop stop-color="#6EFF61"/>
<stop offset="1" stop-color="#27D424"/>
</linearGradient>
<linearGradient id="paint1_linear_2032_12833" x1="22.0003" y1="1.62891" x2="22.0003" y2="30.0659" gradientUnits="userSpaceOnUse">
<stop stop-color="#6EFF61"/>
<stop offset="1" stop-color="#27D424"/>
</linearGradient>
</defs>
</svg>
