<svg width="37" height="37" viewBox="0 0 37 37" fill="none" xmlns="http://www.w3.org/2000/svg">
<path fill-rule="evenodd" clip-rule="evenodd" d="M12.8032 3.93837C14.4715 2.10326 17.227 0.816795 21.0538 1.02136C23.2305 1.13773 24.8296 1.71504 25.9576 2.54453C27.0839 3.37271 27.7202 4.43726 28.0042 5.5012C28.2876 6.56308 28.2228 7.63354 27.9364 8.48909C27.7931 8.91696 27.5919 9.29866 27.3431 9.60084C27.096 9.90085 26.8434 10.0708 26.4246 10.2486C26.1982 10.3447 25.8128 10.433 25.8128 10.433C25.8128 10.433 25.9716 10.1289 26.0362 9.92431C26.1341 9.6145 26.1547 9.50877 26.1496 9.10948C25.6965 5.80983 21.5 5.33076 18.5 6.5C16.1698 7.40817 14.8317 10.1879 16.5 12.5C17.299 13.4223 18.2579 14.112 19.0718 14.3406L19.783 14.5405L19.1048 14.8083C17.5759 15.4118 15.7964 15.1837 14.2958 14.3348C12.7938 13.4851 11.5546 12.0081 11.0624 10.0737C10.5664 8.1243 11.1442 5.76331 12.8032 3.93837Z" fill="#656565"/>
<path d="M12.5289 15.9035C22.3509 17.3181 29.1277 10.9684 30.2058 8.29208C29.5679 12.1463 27.657 14.2651 26.7813 14.8427C29.4363 14.3264 34.7529 15.5726 31.8534 15.3164C28.9539 15.0601 27.4575 15.537 28.2449 15.5791C29.0323 15.6212 30.6482 15.9607 29.6147 15.9561C28.7878 15.9524 28.4366 16.2475 28.3644 16.3956C30.5565 16.3609 35.4842 17.1306 32.6375 16.9784C30.3602 16.8567 29.2048 17.0649 28.9117 17.1843C30.1231 17.249 30.7412 17.3833 30.9516 17.5465C28.768 17.4702 28.1181 17.7494 28.066 17.8985C31.6517 18.0902 32.6759 18.5837 32.7437 18.7561C21.0538 18.7561 16.5814 22.3004 15.6074 24.6785C13.2892 30.3382 18.1095 31.9751 18.1095 31.9751C13.1311 31.9751 9.62259 28.7341 10.4143 25.2075C11.1555 21.9056 13.1157 20.8235 14.7586 20C6.74718 20.7396 4.40158 18.9933 2.5 17.5C3 17 6.6894 18.0442 5.5 17.5C4.73189 17.1486 3.24346 16.4348 2.90727 16.0624C3.69466 16.1045 5.20109 16.2863 5.20109 16.2863C6.87681 16.3758 1.47699 14.8721 1.50007 14.5695C5.41557 15.0826 6.19129 15.276 4.53404 13.871C3.84915 13.4257 6.32599 14.3212 6.6894 14.3406C7.05281 14.3601 5.95646 13.5927 5.85088 13.3845C5.7453 13.1763 7.97772 15.248 12.5289 15.9035Z" fill="#656565"/>
<path d="M25.9756 20.8107C26.8352 20.7048 27.9922 20.7887 29.4309 21.4166C30.895 22.0555 34.4798 24.5953 33.1408 29.8344C32.3244 33.0288 29.66 35.0272 26.5203 35.7444C23.3902 36.4594 19.3805 36.4979 16.2157 34.2621C15.5946 33.8234 14.7586 33.0095 14.7586 33.0095C18.2799 33.9984 20.8276 33.7233 24 32.5C25.6618 31.8592 26.7017 30.9703 27.3431 29.8344C28.2449 28.237 28.066 26.164 27.5 24.5C27.1598 23.5 26.4225 22.2229 25.4967 21.3925L25.048 20.9901L25.9756 20.8107Z" fill="#656565"/>
</svg>
