<svg width="60" height="60" viewBox="0 0 60 60" fill="currentColor" xmlns="http://www.w3.org/2000/svg">
<path d="M23 36.0071C23 38.7746 25.0958 41 27.6667 41H32.9201C35.1556 41 36.972 39.0599 36.972 36.6348C36.972 34.0385 35.8543 33.097 34.2056 32.4979L25.7944 29.5021C24.1457 28.903 23.028 27.99 23.028 25.3652C23.028 22.9686 24.8443 21 27.0798 21H32.3333C34.9042 21 37 23.2254 37 25.9929" stroke="currentColor" stroke-width="4" stroke-linecap="round" stroke-linejoin="round"/>
<path d="M30 18V44" stroke="currentColor" stroke-width="4" stroke-linecap="round" stroke-linejoin="round"/>
<path d="M29.4819 6.62816C29.4463 6.62801 29.4107 6.62793 29.375 6.62793C15.9131 6.62793 5 17.541 5 31.0029C5 44.4649 15.9131 55.3779 29.375 55.3779C42.8369 55.3779 53.75 44.4649 53.75 31.0029C53.75 31.0029 53.75 28.75 51.9819 28.75C50 28.75 50 31.0029 50 31.0029C50 42.3938 40.7659 51.6279 29.375 51.6279C17.9841 51.6279 8.75 42.3938 8.75 31.0029C8.75 19.6121 17.9841 10.3779 29.375 10.3779C29.4107 10.3779 29.4463 10.378 29.4819 10.3782C29.4819 10.3782 31.7319 10.3718 31.7319 8.5C31.7319 6.62816 29.4819 6.62816 29.4819 6.62816Z" fill="currentColor"/>
<path d="M39.9805 11.5H54.9805" stroke="currentColor" stroke-width="4" stroke-linecap="round"/>
<path d="M47.4805 4L47.4805 19" stroke="currentColor" stroke-width="4" stroke-linecap="round"/>
</svg>
