<svg width="45" height="44" viewBox="0 0 45 44" fill="none" xmlns="http://www.w3.org/2000/svg">
<path d="M34.93 6.36122C34.393 5.82425 33.5224 5.82425 32.9854 6.36122C32.4484 6.8982 32.4484 7.7688 32.9854 8.30577L34.3134 9.63372C30.9506 9.76913 27.8436 11.5049 25.9673 14.3194L16.7432 28.1555C15.2981 30.3232 12.8653 31.6252 10.2602 31.6252H9.66602C8.90662 31.6252 8.29102 32.2408 8.29102 33.0002C8.29102 33.7596 8.90662 34.3752 9.66602 34.3752H10.2602C13.7848 34.3752 17.0762 32.6136 19.0314 29.681L28.2555 15.8448C29.5162 13.9538 31.5285 12.7216 33.7513 12.4379L32.6191 13.3814C32.0357 13.8675 31.9569 14.7345 32.443 15.3179C32.9292 15.9013 33.7962 15.9801 34.3796 15.494L36.9624 13.3417C37.6668 12.7546 38.0532 11.9311 38.1095 11.0923C38.169 10.2076 37.8619 9.29322 37.1771 8.60833L34.93 6.36122Z" fill="white"/>
<path d="M9.66602 9.62516C8.90662 9.62516 8.29102 10.2408 8.29102 11.0002C8.29102 11.7596 8.90662 12.3752 9.66602 12.3752H10.2602C12.8653 12.3752 15.2981 13.6772 16.7432 15.8448C17.1645 16.4766 18.0182 16.6474 18.65 16.2261C19.2819 15.8049 19.4526 14.9512 19.0314 14.3194C17.0762 11.3867 13.7848 9.62516 10.2602 9.62516H9.66602Z" fill="white"/>
<path d="M28.2555 28.1555C27.8342 27.5237 26.9805 27.3529 26.3487 27.7742C25.7168 28.1954 25.5461 29.0491 25.9673 29.681C27.7608 32.3711 30.6786 34.0758 33.8695 34.3394L32.6191 35.3814C32.0357 35.8675 31.9569 36.7345 32.443 37.3179C32.9292 37.9013 33.7962 37.9801 34.3796 37.494L36.9624 35.3417C37.6668 34.7546 38.0532 33.9311 38.1095 33.0923C38.169 32.2076 37.8619 31.2932 37.1771 30.6083L34.93 28.3612C34.393 27.8243 33.5224 27.8243 32.9854 28.3612C32.4484 28.8982 32.4484 29.7688 32.9854 30.3058L34.292 31.6124C31.8575 31.4729 29.6177 30.1988 28.2555 28.1555Z" fill="white"/>
</svg>
