<svg width="24" height="24" viewBox="0 0 24 24" fill="none" xmlns="http://www.w3.org/2000/svg">
<path d="M18.5462 20.7275H17.8917V17.2366C17.8917 14.9564 16.5871 12.9789 14.6873 12.0002C16.6065 11.0115 17.8917 9.026 17.8917 6.76387V3.27294H18.5462C18.9076 3.27294 19.2008 2.97997 19.2008 2.61839C19.2007 2.25684 18.9076 1.96387 18.5462 1.96387C15.921 1.96387 8.10689 1.96387 5.45534 1.96387C5.09399 1.96387 4.80078 2.25684 4.80078 2.61842C4.80078 2.98001 5.09399 3.27298 5.45534 3.27298H6.1099V6.76391C6.1099 9.02569 7.39467 11.0114 9.31424 12.0003C7.41443 12.979 6.1099 14.9565 6.1099 17.2366V20.7275H5.45534C5.09399 20.7275 4.80078 21.0205 4.80078 21.3821C4.80078 21.7437 5.09399 22.0366 5.45534 22.0366C9.82746 22.0366 14.1783 22.0366 18.5462 22.0366C18.9076 22.0366 19.2008 21.7437 19.2008 21.3821C19.2007 21.0205 18.9076 20.7275 18.5462 20.7275ZM7.43897 7.15889C7.40694 6.7861 7.41893 6.94499 7.41893 3.27294H16.5826C16.5826 6.94499 16.5946 6.7861 16.5626 7.15889H7.43897ZM16.5826 19.9846C12.9717 16.9755 13.1033 17.0297 12.6553 16.8714V16.1457C12.6553 15.7841 12.3621 15.4911 12.0008 15.4911C11.6394 15.4911 11.3462 15.7841 11.3462 16.1457V16.8714C10.9029 17.028 11.0417 16.9656 7.41893 19.9846V17.2366C7.41893 14.9329 9.12943 13.0263 11.3462 12.707V13.5275C11.3462 13.889 11.6394 14.182 12.0008 14.182C12.3621 14.182 12.6553 13.889 12.6553 13.5275V12.707C14.8721 13.0263 16.5826 14.9329 16.5826 17.2366V19.9846Z" fill="#FDE9FF"/>
</svg>
