<svg width="60" height="60" viewBox="0 0 60 60" fill="none" xmlns="http://www.w3.org/2000/svg">
<rect width="60" height="60" rx="30" fill="#3D86E4"/>
<path d="M47.2051 11.0083C47.2161 11.0092 47.2272 11.0092 47.2383 11.0103L47.2568 11.0112C48.2351 11.1107 48.9988 11.9374 48.999 12.9419C48.999 12.9974 48.9958 13.0526 48.9912 13.1069V25.8403C48.9911 26.9119 48.1223 27.7805 47.0508 27.7808C45.9791 27.7808 45.1105 26.912 45.1104 25.8403V17.6274L35.6006 27.1392C37.5155 29.6391 38.6542 32.7659 38.6543 36.1587C38.6543 44.3525 32.0177 50.9984 23.8271 50.9985C15.6365 50.9985 9 44.3525 9 36.1587C9.00029 27.9651 15.6367 21.3199 23.8271 21.3198C27.2272 21.3199 30.3585 22.4664 32.8594 24.3921L42.3682 14.8823H34.1611C33.0895 14.8822 32.2207 14.0136 32.2207 12.9419C32.2209 11.8704 33.0896 11.0016 34.1611 11.0015H47.0586L47.2051 11.0083ZM23.8271 25.2007C17.7837 25.2007 12.8811 30.1052 12.8809 36.1587C12.8809 42.2124 17.7835 47.1176 23.8271 47.1177C29.8707 47.1175 34.7734 42.2123 34.7734 36.1587C34.7731 30.1053 29.8705 25.2008 23.8271 25.2007Z" fill="white"/>
</svg>
