<svg width="60" height="60" viewBox="0 0 60 60" fill="none" xmlns="http://www.w3.org/2000/svg">
<path d="M32.6992 52.5996H35.3994V33.6992H48.8975V50.9795C48.8975 52.4913 48.8976 53.2477 48.6035 53.8252C48.3447 54.3332 47.9318 54.747 47.4238 55.0059C46.8463 55.3001 46.0901 55.2998 44.5781 55.2998H15.418C13.9061 55.2998 13.1498 55.3 12.5723 55.0059C12.0642 54.747 11.6505 54.3332 11.3916 53.8252C11.0976 53.2477 11.0977 52.4912 11.0977 50.9795V33.6992H32.6992V52.5996ZM23.251 2C28.1299 2.00008 32.2933 5.05289 33.9424 9.35156C35.4463 8.13184 37.362 7.40039 39.4492 7.40039C44.2817 7.40039 48.1992 11.3179 48.1992 16.1504C48.1991 17.6121 47.8389 18.9891 47.2051 20.2002H51.5996C54.5818 20.2002 56.9998 22.6174 57 25.5996C57 28.5819 54.5819 31 51.5996 31H8.40039C5.41805 31 3 28.5819 3 25.5996C3.00018 22.6174 5.41817 20.2002 8.40039 20.2002H14.0039C12.6197 18.3072 11.8008 15.9748 11.8008 13.4502C11.8008 7.12653 16.9273 2 23.251 2ZM23.251 6C19.1365 6 15.8008 9.33567 15.8008 13.4502C15.8009 16.4373 17.5597 19.0125 20.0977 20.2002H30.6992V16.1504C30.6992 16.1255 30.701 16.1001 30.7012 16.0752V13.4502C30.7012 9.33574 27.3654 6.0001 23.251 6ZM39.4492 11.4004C36.8531 11.4004 34.7447 13.4826 34.7012 16.0684V20.2002H41.9307C43.2912 19.3649 44.199 17.8639 44.1992 16.1504C44.1992 13.527 42.0726 11.4004 39.4492 11.4004Z" fill="url(#paint0_linear_334_7640)"/>
<defs>
<linearGradient id="paint0_linear_334_7640" x1="3" y1="28.6499" x2="57" y2="28.6499" gradientUnits="userSpaceOnUse">
<stop stop-color="#EC09F8"/>
<stop offset="1" stop-color="#B732FF"/>
</linearGradient>
</defs>
</svg>
