<svg width="60" height="60" viewBox="0 0 60 60" fill="none" xmlns="http://www.w3.org/2000/svg">
<path d="M24.7869 5.21458C27.6484 2.91921 32.3192 2.91857 35.2077 5.24095L53.9158 20.2019C55.9943 21.8762 57.3438 25.4139 56.9118 28.0603L53.322 49.5554C52.6741 53.363 48.9754 56.4958 45.115 56.4958H14.8796C10.9922 56.4958 7.3205 53.39 6.67259 49.5554L3.08177 28.0603C2.62285 25.4139 3.97319 21.8762 6.07884 20.2019L24.7869 5.21458ZM29.9958 20.2849C22.8382 20.2849 17.0359 26.0873 17.0359 33.2449C17.0359 40.4025 22.8382 46.2048 29.9958 46.2048C37.1535 46.2048 42.9558 40.4025 42.9558 33.2449C42.9557 26.0872 37.1535 20.2849 29.9958 20.2849Z" fill="url(#paint0_linear_72_2996)"/>
<path d="M30 25C31.1044 25 31.9998 25.8956 32 27V31H36L36.2041 31.0107C37.2126 31.113 37.9998 31.9645 38 33C38 34.0356 37.2127 34.8869 36.2041 34.9893L36 35H32V39C32 40.1045 31.1045 41 30 41C28.8954 41 28 40.1046 28 39V35H24C22.8954 35 22 34.1046 22 33C22.0002 31.8956 22.8956 31 24 31H28V27C28.0002 25.8956 28.8956 25 30 25Z" fill="url(#paint1_linear_72_2996)"/>
<defs>
<linearGradient id="paint0_linear_72_2996" x1="2.99219" y1="29.996" x2="56.9924" y2="29.996" gradientUnits="userSpaceOnUse">
<stop stop-color="#EC09F8"/>
<stop offset="1" stop-color="#B732FF"/>
</linearGradient>
<linearGradient id="paint1_linear_72_2996" x1="22" y1="33" x2="38" y2="33" gradientUnits="userSpaceOnUse">
<stop stop-color="#EC09F8"/>
<stop offset="1" stop-color="#B732FF"/>
</linearGradient>
</defs>
</svg>
