<svg width="56" height="56" viewBox="0 0 56 56" fill="none" xmlns="http://www.w3.org/2000/svg">
<path d="M32.4048 37.1059L31.074 41.687C30.1544 44.8527 29.6946 46.4355 28.9865 46.8365C28.3751 47.1827 27.6269 47.1827 27.0156 46.8365C26.3074 46.4355 25.8476 44.8527 24.9281 41.687L23.5973 37.1059C23.2107 35.7751 23.0174 35.1097 22.6558 34.5629C22.3357 34.0789 21.9213 33.6644 21.4373 33.3443C20.8905 32.9827 20.2251 32.7894 18.8943 32.4028L14.3131 31.0721C11.1475 30.1525 9.56462 29.6927 9.16364 28.9846C8.81745 28.3732 8.81745 27.625 9.16364 27.0136C9.56462 26.3055 11.1474 25.8457 14.3131 24.9261L18.8943 23.5954C20.2251 23.2088 20.8905 23.0155 21.4373 22.6539C21.9213 22.3338 22.3357 21.9193 22.6558 21.4353C23.0174 20.8885 23.2107 20.2231 23.5973 18.8923L24.9281 14.3112L24.9281 14.3111C25.8476 11.1455 26.3074 9.56267 27.0156 9.16169C27.6269 8.81549 28.3751 8.81549 28.9865 9.16169C29.6946 9.56267 30.1544 11.1455 31.074 14.3111L31.074 14.3112L32.4048 18.8923C32.7914 20.2231 32.9846 20.8885 33.3463 21.4353C33.6664 21.9193 34.0808 22.3338 34.5648 22.6539C35.1116 23.0155 35.777 23.2088 37.1078 23.5954L41.689 24.9261C44.8546 25.8457 46.4375 26.3055 46.8384 27.0136C47.1846 27.625 47.1846 28.3732 46.8384 28.9846C46.4375 29.6927 44.8546 30.1525 41.689 31.0721L37.1078 32.4028C35.777 32.7894 35.1116 32.9827 34.5648 33.3443C34.0808 33.6644 33.6664 34.0789 33.3463 34.5629C32.9846 35.1097 32.7914 35.7751 32.4048 37.1059Z" fill="url(#paint0_linear_2946_12399)"/>
<path d="M13.8127 14.9473L12.9251 17.6527C12.7465 18.197 11.9764 18.197 11.7978 17.6527L10.9101 14.9473C10.7337 14.4095 10.3119 13.9878 9.7741 13.8113L7.06877 12.9236C6.52444 12.745 6.52444 11.975 7.06877 11.7964L9.7741 10.9087C10.3119 10.7322 10.7337 10.3104 10.9101 9.77263L11.7978 7.06731C11.9764 6.52298 12.7465 6.52298 12.9251 7.06731L13.8127 9.77263C13.9892 10.3104 14.411 10.7322 14.9488 10.9087L17.6541 11.7964C18.1984 11.975 18.1984 12.745 17.6541 12.9236L14.9488 13.8113C14.411 13.9878 13.9892 14.4095 13.8127 14.9473Z" fill="url(#paint1_linear_2946_12399)"/>
<path d="M45.0906 46.2247L44.2029 48.93C44.0243 49.4743 43.2543 49.4743 43.0757 48.93L42.188 46.2247C42.0115 45.6869 41.5897 45.2651 41.0519 45.0886L38.3466 44.2009C37.8023 44.0223 37.8023 43.2523 38.3466 43.0737L41.0519 42.186C41.5897 42.0096 42.0115 41.5878 42.188 41.05L43.0757 38.3446C43.2543 37.8003 44.0243 37.8003 44.2029 38.3447L45.0906 41.05C45.267 41.5878 45.6888 42.0096 46.2266 42.186L48.932 43.0737C49.4763 43.2523 49.4763 44.0223 48.9319 44.2009L46.2266 45.0886C45.6888 45.2651 45.267 45.6869 45.0906 46.2247Z" fill="url(#paint2_linear_2946_12399)"/>
<defs>
<linearGradient id="paint0_linear_2946_12399" x1="28.001" y1="3.73242" x2="28.001" y2="52.2658" gradientUnits="userSpaceOnUse">
<stop stop-color="#FFC304"/>
<stop offset="1" stop-color="#FF8201"/>
</linearGradient>
<linearGradient id="paint1_linear_2946_12399" x1="12.3614" y1="5.34961" x2="12.3614" y2="19.3704" gradientUnits="userSpaceOnUse">
<stop stop-color="#FFC304"/>
<stop offset="1" stop-color="#FF8201"/>
</linearGradient>
<linearGradient id="paint2_linear_2946_12399" x1="43.6393" y1="36.627" x2="43.6393" y2="50.6477" gradientUnits="userSpaceOnUse">
<stop stop-color="#FFC304"/>
<stop offset="1" stop-color="#FF8201"/>
</linearGradient>
</defs>
</svg>
