<svg width="60" height="60" viewBox="0 0 60 60" fill="none" xmlns="http://www.w3.org/2000/svg">
<rect width="60" height="60" rx="30" fill="#F13DB8"/>
<path d="M29.999 7C37.9845 7 44.499 13.4044 44.499 21.3535C44.4988 28.6244 39.048 34.6005 32.0068 35.5674V41.5889H37.499C38.6036 41.5889 39.499 42.4843 39.499 43.5889C39.499 44.6934 38.6036 45.5889 37.499 45.5889H32.0068V51C32.0066 52.1042 31.111 52.9997 30.0068 53C28.9024 53 28.0071 52.1044 28.0068 51V45.5889H22.5C21.3954 45.5889 20.5 44.6934 20.5 43.5889C20.5 42.4843 21.3954 41.5889 22.5 41.5889H28.0068V35.5693C20.9584 34.609 15.5002 28.6297 15.5 21.3535C15.5 13.4045 22.0137 7.00015 29.999 7ZM29.999 11C24.1783 11.0002 19.5 15.6579 19.5 21.3535C19.5003 27.0489 24.1785 31.7059 29.999 31.7061C35.8197 31.7061 40.4988 27.049 40.499 21.3535C40.499 15.6578 35.8199 11 29.999 11Z" fill="white"/>
</svg>
