<svg width="60" height="60" viewBox="0 0 60 60" fill="none" xmlns="http://www.w3.org/2000/svg">
<path d="M27.6133 42.4867C26.0759 44.3236 24.0104 45.6427 21.6972 46.265C19.384 46.8872 16.9354 46.7823 14.6839 45.9646C12.4325 45.1469 10.4872 43.6559 9.11253 41.6943C7.73782 39.7326 7.00025 37.3954 7 35C7 29.66 10.8 26.2233 15.8667 21.64C20.2867 17.64 25.6733 12.7667 30.3333 5C34.9933 12.7667 40.38 17.64 44.8 21.64C49.8667 26.2233 53.6667 29.66 53.6667 35C53.6664 37.3954 52.9289 39.7326 51.5541 41.6943C50.1794 43.6559 48.2342 45.1469 45.9827 45.9646C43.7312 46.7823 41.2826 46.8872 38.9695 46.265C36.6563 45.6427 34.5907 44.3236 33.0533 42.4867C34.5404 45.8568 36.3042 49.0979 38.3267 52.1767C39.0967 53.3433 38.26 55 36.8667 55H23.8C22.4033 55 21.5667 53.3433 22.34 52.1767C24.3625 49.0979 26.1263 45.8568 27.6133 42.4867Z" fill="url(#paint0_linear_2998_2248)"/>
<defs>
<linearGradient id="paint0_linear_2998_2248" x1="30.3333" y1="5" x2="30.3333" y2="55" gradientUnits="userSpaceOnUse">
<stop stop-color="#00EFBF"/>
<stop offset="1" stop-color="#01A491"/>
</linearGradient>
</defs>
</svg>
