<svg width="60" height="60" viewBox="0 0 60 60" fill="currentColor" xmlns="http://www.w3.org/2000/svg">
<path d="M23.9238 31.1499L16.2988 38.7749" stroke="currentColor" stroke-width="4" stroke-miterlimit="10" stroke-linecap="round" stroke-linejoin="round"/>
<path d="M16.377 31.225L24.002 38.85" stroke="currentColor" stroke-width="4" stroke-miterlimit="10" stroke-linecap="round" stroke-linejoin="round"/>
<path d="M33.8242 35H33.8492" stroke="currentColor" stroke-width="5" stroke-miterlimit="10" stroke-linecap="round" stroke-linejoin="round"/>
<path d="M43.6758 35H43.7008" stroke="currentColor" stroke-width="5" stroke-miterlimit="10" stroke-linecap="round" stroke-linejoin="round"/>
<path d="M38.75 39.9499V39.8999" stroke="currentColor" stroke-width="5" stroke-miterlimit="10" stroke-linecap="round" stroke-linejoin="round"/>
<path d="M38.75 30.1V30.05" stroke="currentColor" stroke-width="5" stroke-miterlimit="10" stroke-linecap="round" stroke-linejoin="round"/>
<path d="M22.5 55H37.5C50 55 55 50 55 37.5V32.5C55 20 50 15 37.5 15H22.5C10 15 5 20 5 32.5V37.5C5 50 10 55 22.5 55Z" stroke="currentColor" stroke-width="4" stroke-linecap="round" stroke-linejoin="round"/>
<path d="M32.5262 5L32.5012 7.525C32.4762 8.9 31.3762 10 30.0012 10H29.9262C28.5512 10 27.4512 11.125 27.4512 12.5C27.4512 13.875 28.5762 15 29.9512 15H32.4512" stroke="currentColor" stroke-width="4" stroke-linecap="round" stroke-linejoin="round"/>
</svg>
