<svg width="60" height="60" viewBox="0 0 60 60" fill="currentColor" xmlns="http://www.w3.org/2000/svg">
<path d="M42.5 5C49.3999 5 54.9999 10.5777 55 17.4561V34.915C55 41.7934 49.4 47.3711 42.5 47.3711H38.75C37.975 47.3711 37.225 47.7468 36.75 48.3721L33 53.3496C31.35 55.5503 28.65 55.5503 27 53.3496L23.25 48.3721C22.825 47.8218 21.925 47.3711 21.25 47.3711H17.5C10.6 47.3711 5.00004 41.7934 5 34.915V17.4561C5.00009 10.5777 10.6001 5 17.5 5H42.5ZM25 21C23.8954 21 23 21.8954 23 23V31C23 32.1046 23.8954 33 25 33C26.1046 33 27 32.1046 27 31V23C27 21.8954 26.1046 21 25 21ZM35 21C33.8954 21 33 21.8954 33 23V31C33 32.1046 33.8954 33 35 33C36.1046 33 37 32.1046 37 31V23C37 21.8954 36.1046 21 35 21Z" fill="currentColor"/>
<defs>
<linearGradient id="paint0_linear_45_3060" x1="5" y1="30.0001" x2="55" y2="30.0001" gradientUnits="userSpaceOnUse">
<stop stop-color="#EC09F8"/>
<stop offset="1" stop-color="#B732FF"/>
</linearGradient>
</defs>
</svg>
