<svg width="30" height="30" viewBox="0 0 30 30" fill="none" xmlns="http://www.w3.org/2000/svg">
<rect width="30" height="30" rx="15" fill="#3D86E4"/>
<path d="M23.5293 5.47119C24.0814 5.47137 24.5293 5.91902 24.5293 6.47119C24.5293 6.4942 24.5269 6.51693 24.5254 6.53955V12.9204L24.5205 13.0229C24.4691 13.5269 24.0429 13.9203 23.5254 13.9204C23.0078 13.9204 22.5817 13.527 22.5303 13.0229L22.5254 12.9204V8.88623L17.8389 13.5728C18.7907 14.8243 19.3564 16.3857 19.3564 18.0796C19.3564 22.1928 16.0248 25.5288 11.9131 25.5288C7.80156 25.5286 4.46981 22.1927 4.46973 18.0796C4.46982 13.9665 7.80157 10.6306 11.9131 10.6304C13.6105 10.6304 15.1747 11.1996 16.4268 12.1567L21.1123 7.47119H17.0811C16.5288 7.47119 16.0811 7.02346 16.0811 6.47119C16.0811 5.91891 16.5288 5.47119 17.0811 5.47119H23.5293ZM11.9131 12.6304C8.90789 12.6306 6.46982 15.0693 6.46973 18.0796C6.46981 21.0899 8.90788 23.5286 11.9131 23.5288C14.9185 23.5288 17.3564 21.09 17.3564 18.0796C17.3564 15.0692 14.9185 12.6304 11.9131 12.6304Z" fill="white"/>
</svg>
