<svg width="44" height="44" viewBox="0 0 44 44" fill="none" xmlns="http://www.w3.org/2000/svg">
<path d="M20.3799 22.4213V12.7199H17.6525C14.6322 12.7199 13.0396 10.7613 13.0396 8.85763C13.0396 6.88068 14.5041 5.70918 16.4627 5.70918C18.7142 5.70918 20.4714 7.44816 20.4714 10.3586V12.7199H23.5283V10.3586C23.5283 7.44816 25.2856 5.70918 27.537 5.70918C29.4956 5.70918 30.9783 6.88068 30.9783 8.85763C30.9783 10.7613 29.3308 12.7199 26.3472 12.7199H23.6198V22.4213H36.5246C38.5199 22.4213 39.5999 21.6526 39.5999 19.6939V15.4473C39.5999 13.507 38.5199 12.7199 36.5246 12.7199H32.2596C33.3945 11.6948 34.0718 10.3036 34.0718 8.72946C34.0718 5.19669 31.2712 2.65234 27.72 2.65234C25.0842 2.65234 22.9426 4.11664 22.009 6.71597C21.0754 4.11664 18.9155 2.65234 16.2796 2.65234C12.7468 2.65234 9.9279 5.19669 9.9279 8.72946C9.9279 10.3036 10.5868 11.6948 11.7401 12.7199H7.47509C5.58968 12.7199 4.3999 13.507 4.3999 15.4473V19.6939C4.3999 21.6526 5.49815 22.4213 7.47509 22.4213H20.3799ZM20.3799 41.3484V24.3799H7.01743V36.699C7.01743 39.756 8.81131 41.3484 11.8681 41.3484H20.3799ZM23.6198 24.3799V41.3484H32.1315C35.1883 41.3484 36.9822 39.756 36.9822 36.699V24.3799H23.6198Z" fill="url(#paint0_linear_2032_12861)"/>
<defs>
<linearGradient id="paint0_linear_2032_12861" x1="21.9999" y1="2.65234" x2="21.9999" y2="41.3484" gradientUnits="userSpaceOnUse">
<stop offset="0.440249" stop-color="white"/>
<stop offset="1" stop-color="#FBCAFF"/>
</linearGradient>
</defs>
</svg>
