<svg width="48" height="48" viewBox="0 0 48 48" fill="none" xmlns="http://www.w3.org/2000/svg">
<path d="M11.8921 21.7334C13.3647 21.7334 14.5588 22.9269 14.5591 24.3994C14.5591 25.8722 13.3648 27.0664 11.8921 27.0664H11.8345C10.362 27.066 9.16846 25.8719 9.16846 24.3994C9.16877 22.9272 10.3622 21.7338 11.8345 21.7334H11.8921ZM24.0298 21.7334C25.5023 21.7334 26.6965 22.9269 26.6968 24.3994C26.6968 25.8722 25.5025 27.0664 24.0298 27.0664H23.9722C22.4996 27.0661 21.3062 25.872 21.3062 24.3994C21.3065 22.9271 22.4998 21.7337 23.9722 21.7334H24.0298ZM36.1733 21.7334C37.6459 21.7334 38.84 22.9269 38.8403 24.3994C38.8403 25.8722 37.6461 27.0664 36.1733 27.0664H36.1157C34.6433 27.066 33.4497 25.8719 33.4497 24.3994C33.45 22.9272 34.6435 21.7338 36.1157 21.7334H36.1733Z" fill="#0C0C0C"/>
</svg>
