<svg width="50" height="50" viewBox="0 0 50 50" fill="none" xmlns="http://www.w3.org/2000/svg">
<path d="M25 0C38.775 0 50 11.225 50 25C50 38.775 38.775 50 25 50C11.225 50 0 38.775 0 25C0 11.225 11.225 0 25 0Z" fill="#B4B4B4"/>
<path d="M23.642 10.6472V7.44922H26.216V10.6472C28.556 10.8032 30.428 11.4662 31.793 12.5582C33.392 13.8062 34.367 15.8732 34.757 18.7202H30.311C30.077 17.0822 29.492 15.9512 28.556 15.2882C27.971 14.8592 27.191 14.5862 26.216 14.4692V23.0492C29.297 24.1802 30.974 24.8042 31.208 24.9602C33.899 26.4812 35.264 28.6652 35.264 31.5122C35.264 34.2812 34.211 36.3482 32.105 37.7522C30.545 38.7662 28.595 39.3512 26.216 39.5072V42.9392H23.642V39.5072C20.99 39.3122 18.962 38.5712 17.558 37.2452C15.92 35.6852 14.984 33.3062 14.75 30.1082H19.274C19.43 32.1362 19.937 33.6182 20.834 34.4762C21.497 35.1002 22.433 35.4902 23.642 35.6462V26.5202L19.157 24.8822C16.427 23.4002 15.101 21.2162 15.101 18.3302C15.101 15.7562 16.076 13.8062 18.065 12.4412C19.547 11.3882 21.38 10.8032 23.642 10.6472ZM26.216 27.4562V35.6462C27.308 35.4902 28.283 35.1782 29.063 34.6712C30.155 33.9692 30.701 32.9552 30.701 31.6682C30.701 29.9132 29.336 28.5482 26.645 27.6122C26.489 27.5342 26.372 27.4952 26.216 27.4562ZM23.642 22.0742V14.4302C22.628 14.5472 21.809 14.8202 21.224 15.2102C20.171 15.8342 19.664 16.8872 19.664 18.3302C19.664 19.8122 20.99 21.0602 23.642 22.0742Z" fill="white"/>
</svg>
