<svg width="72" height="72" viewBox="0 0 72 72" fill="none" xmlns="http://www.w3.org/2000/svg">
<rect width="72" height="72" rx="20" fill="#FDE4EE"/>
<path d="M30.0371 24.9045C34.8079 24.9045 37.1934 24.9048 39.0156 25.8459C40.6184 26.6738 41.9216 27.9947 42.7383 29.6194C43.6667 31.4664 43.667 33.8843 43.667 38.72V43.3811C43.667 43.8639 43.6668 44.1058 43.6572 44.3098C43.4493 48.7574 39.9386 52.3151 35.5508 52.5256C35.3495 52.5353 35.0839 52.5354 34.5527 52.5354H34.416C32.6779 52.5467 30.9843 53.0967 29.5635 54.1116L29.4736 54.177L25.0254 57.3977C23.5006 58.5015 21.4975 56.9073 22.1934 55.1438C22.6862 53.8947 21.7784 52.5355 20.4512 52.5354H19.4258C15.8771 52.5354 13.0002 49.6198 13 46.0227V38.72C13 33.8843 13.0003 31.4664 13.9287 29.6194C14.7454 27.9947 16.0485 26.6738 17.6514 25.8459C19.4736 24.9049 21.8592 24.9045 26.6299 24.9045H30.0371ZM41.4766 13.9524C47.6101 13.9524 50.6768 13.9528 53.0195 15.1448C55.0804 16.1934 56.7566 17.8661 57.8066 19.9241C59.0004 22.2637 59 25.327 59 31.4524V40.7014C58.9999 45.2578 55.301 48.9514 50.7383 48.9514H49.4199C47.7134 48.9516 46.5469 50.6729 47.1807 52.2551C48.0753 54.4889 45.4985 56.508 43.5381 55.1096L40.5352 52.968C43.565 51.4173 45.6764 48.3208 45.8467 44.7063C45.8576 44.475 45.8574 44.2009 45.8574 43.6536V38.3713C45.8574 32.8912 45.8569 30.1511 44.7959 28.0579C43.8625 26.2165 42.3729 24.7187 40.541 23.7805C38.4586 22.7142 35.7322 22.7141 30.2803 22.7141H26.3867C23.5986 22.7141 21.5227 22.7141 19.8818 22.8567C20.0578 21.7109 20.3339 20.7701 20.7656 19.9241C21.8157 17.8662 23.491 16.1933 25.5518 15.1448C27.8946 13.9527 30.9618 13.9524 37.0957 13.9524H41.4766ZM28.333 35.0549C26.2032 30.1223 18.75 30.6477 18.75 36.9524C18.75 43.2332 28.2604 48.4711 28.333 48.511C28.333 48.511 37.917 43.2572 37.917 36.9524C37.917 30.6476 30.4626 30.122 28.333 35.0549Z" fill="url(#paint0_linear_1651_20605)"/>
<defs>
<linearGradient id="paint0_linear_1651_20605" x1="36" y1="13.9524" x2="36" y2="57.7618" gradientUnits="userSpaceOnUse">
<stop stop-color="#FF76B5"/>
<stop offset="1" stop-color="#FF5383"/>
</linearGradient>
</defs>
</svg>
