<svg width="28" height="28" viewBox="0 0 28 28" fill="none" xmlns="http://www.w3.org/2000/svg">
<path d="M19.4671 6.62761V8.10062L10.2227 17.3451C9.0036 16.2403 8.2417 14.6149 8.2417 12.8752V6.62761C8.2417 4.01173 10.0195 1.8403 12.4322 1.21808C13.3491 0.976785 14.3597 0.976785 15.2766 1.21808C17.6893 1.8403 19.4671 4.01173 19.4671 6.62761Z" fill="#FF475C"/>
<path d="M8.49477 19.0725L7.23762 20.3297C5.21857 18.5138 3.93604 15.8852 3.93604 12.9519V10.9328C3.93604 10.4503 4.32969 10.0566 4.81223 10.0566C5.30746 10.0566 5.70111 10.4503 5.70111 10.9328V12.9519C5.70111 15.39 6.78048 17.5868 8.49477 19.0725Z" fill="#FF475C"/>
<path d="M23.7687 10.9328V12.9519C23.7687 18.1201 19.7941 22.3741 14.7401 22.8185V25.5233C14.7401 26.0185 14.3465 26.4122 13.8513 26.4122C13.356 26.4122 12.9624 26.0185 12.9624 25.5233V22.8185C11.5782 22.6916 10.2703 22.2852 9.10205 21.6376L10.41 20.3297C11.4513 20.8122 12.6195 21.0916 13.8513 21.0916C18.3465 21.0916 22.0036 17.4344 22.0036 12.9519V10.9328C22.0036 10.4503 22.3973 10.0566 22.8925 10.0566C23.3751 10.0566 23.7687 10.4503 23.7687 10.9328Z" fill="#FF475C"/>
<path d="M19.4656 11.2754V13.1167C19.4656 16.3929 16.6466 19.0214 13.2942 18.704C12.9386 18.6659 12.5831 18.6024 12.2529 18.4881L19.4656 11.2754Z" fill="#FF475C"/>
<path d="M23.5402 4.0279C23.1593 3.64695 22.5371 3.64695 22.1561 4.0279L4.71394 21.4828C4.33298 21.8637 4.33298 22.486 4.71394 22.8669C4.90441 23.0447 5.14568 23.1463 5.39965 23.1463C5.65362 23.1463 5.89489 23.0447 6.08537 22.8542L23.5402 5.39933C23.9339 5.01838 23.9339 4.40885 23.5402 4.0279Z" fill="#FF475C"/>
</svg>
