<svg width="60" height="60" viewBox="0 0 60 60" fill="none" xmlns="http://www.w3.org/2000/svg">
<path d="M41.0018 37.568C40.5136 37.0799 39.7222 37.0799 39.234 37.568C38.7458 38.0562 38.7458 38.8476 39.234 39.3358L41.0018 37.568ZM44.9481 45.05C45.4363 45.5382 46.2278 45.5382 46.7159 45.05C47.2041 44.5619 47.2041 43.7704 46.7159 43.2823L44.9481 45.05ZM39.234 39.3358L44.9481 45.05L46.7159 43.2823L41.0018 37.568L39.234 39.3358ZM28.6892 38.6304C22.2787 38.6304 17.082 33.4336 17.082 27.0232H14.582C14.582 34.8144 20.898 41.1304 28.6892 41.1304V38.6304ZM40.2964 27.0232C40.2964 33.4336 35.0997 38.6304 28.6892 38.6304V41.1304C36.4804 41.1304 42.7964 34.8144 42.7964 27.0232H40.2964ZM28.6892 15.416C35.0997 15.416 40.2964 20.6127 40.2964 27.0232H42.7964C42.7964 19.232 36.4804 12.916 28.6892 12.916V15.416ZM28.6892 12.916C20.898 12.916 14.582 19.232 14.582 27.0232H17.082C17.082 20.6127 22.2787 15.416 28.6892 15.416V12.916Z" fill="#434343"/>
</svg>
