<svg width="72" height="72" viewBox="0 0 72 72" fill="none" xmlns="http://www.w3.org/2000/svg">
<rect width="72" height="72" rx="20" fill="#FFEBD1"/>
<path d="M59.3327 32.1111V39.8888C59.3327 42.0338 57.5888 43.7777 55.4438 43.7777H54.385C52.8978 52.5915 45.2309 59.3333 35.9993 59.3333C35.1395 59.3333 34.4438 58.6375 34.4438 57.7777C34.4438 56.9179 35.1395 56.2222 35.9993 56.2222C44.5762 56.2222 51.5549 49.2435 51.5549 40.6666V31.3333C51.5549 22.7565 44.5762 15.7777 35.9993 15.7777C27.4225 15.7777 20.4438 22.7565 20.4438 31.3333V42.2222C20.4438 43.082 19.748 43.7777 18.8882 43.7777H16.5549C14.4099 43.7777 12.666 42.0338 12.666 39.8888V32.1111C12.666 29.9661 14.4099 28.2222 16.5549 28.2222H17.6137C19.1009 19.4084 26.7678 12.6666 35.9993 12.6666C45.2309 12.6666 52.8978 19.4084 54.385 28.2222H55.4438C57.5888 28.2222 59.3327 29.9661 59.3327 32.1111ZM35.9993 18.8888C29.1376 18.8888 23.5549 24.4715 23.5549 31.3333V39.1111C23.5549 45.9728 29.1376 51.5555 35.9993 51.5555C42.8611 51.5555 48.4438 45.9728 48.4438 39.1111V31.3333C48.4438 24.4715 42.8611 18.8888 35.9993 18.8888Z" fill="url(#paint0_linear_1587_17317)"/>
<defs>
<linearGradient id="paint0_linear_1587_17317" x1="35.9993" y1="12.6666" x2="35.9993" y2="59.3333" gradientUnits="userSpaceOnUse">
<stop stop-color="#FFAD65"/>
<stop offset="1" stop-color="#FF720E"/>
</linearGradient>
</defs>
</svg>
