<svg width="44" height="44" viewBox="0 0 44 44" fill="none" xmlns="http://www.w3.org/2000/svg">
<path d="M7.4466 37.0637L8.18133 36.0524H8.18133L7.4466 37.0637ZM5.41865 35.0358L4.40737 35.7705H4.40737L5.41865 35.0358ZM32.8893 37.0637L32.1546 36.0524H32.1546L32.8893 37.0637ZM34.9173 35.0358L33.906 34.301V34.301L34.9173 35.0358ZM5.41865 9.59303L4.40737 8.8583H4.40737L5.41865 9.59303ZM7.4466 7.56507L8.18134 8.57634L7.4466 7.56507ZM16.5163 7.07752C17.2066 7.06924 17.7595 6.50293 17.7512 5.81262C17.7429 5.12232 17.1766 4.56942 16.4863 4.5777L16.5163 7.07752ZM37.9047 25.996C37.9129 25.3057 37.36 24.7394 36.6697 24.7312C35.9794 24.7229 35.4131 25.2758 35.4048 25.9661L37.9047 25.996ZM21.6302 29.6559L21.4921 28.4135L21.6302 29.6559ZM14.0772 29.1105L13.1933 29.9944H13.1933L14.0772 29.1105ZM13.5318 21.5576L14.7742 21.6956L13.5318 21.5576ZM15.6349 17.182L14.751 16.2981L15.6349 17.182ZM14.0133 19.0958L12.8867 18.5543L14.0133 19.0958ZM26.0058 27.5529L26.8897 28.4367L26.0058 27.5529ZM24.0919 29.1744L24.6334 30.301L24.0919 29.1744ZM20.168 37.5644C16.7029 37.5644 14.2045 37.5627 12.2676 37.3528C10.3541 37.1455 9.13754 36.7472 8.18133 36.0524L6.71187 38.075C8.16527 39.1309 9.87212 39.6079 11.9983 39.8383C14.1011 40.0661 16.7586 40.0644 20.168 40.0644V37.5644ZM2.41797 22.3144C2.41797 25.7238 2.41625 28.3813 2.64408 30.4841C2.87443 32.6102 3.35142 34.3171 4.40737 35.7705L6.42992 34.301C5.7352 33.3448 5.33684 32.1283 5.12953 30.2148C4.91968 28.2779 4.91797 25.7795 4.91797 22.3144H2.41797ZM8.18133 36.0524C7.50925 35.5642 6.91822 34.9731 6.42992 34.301L4.40737 35.7705C5.04987 36.6548 5.82755 37.4325 6.71187 38.075L8.18133 36.0524ZM20.168 40.0644C23.5774 40.0644 26.2348 40.0661 28.3376 39.8383C30.4638 39.6079 32.1707 39.1309 33.6241 38.075L32.1546 36.0524C31.1984 36.7472 29.9818 37.1455 28.0683 37.3528C26.1315 37.5627 23.6331 37.5644 20.168 37.5644V40.0644ZM33.906 34.301C33.4177 34.9731 32.8267 35.5642 32.1546 36.0524L33.6241 38.075C34.5084 37.4325 35.2861 36.6548 35.9286 35.7705L33.906 34.301ZM4.91797 22.3144C4.91797 18.8493 4.91968 16.3509 5.12953 14.414C5.33684 12.5005 5.7352 11.284 6.42992 10.3278L4.40737 8.8583C3.35142 10.3117 2.87443 12.0185 2.64408 14.1447C2.41625 16.2475 2.41797 18.905 2.41797 22.3144H4.91797ZM6.71187 6.5538C5.82755 7.1963 5.04987 7.97398 4.40737 8.8583L6.42992 10.3278C6.91821 9.65568 7.50925 9.06464 8.18134 8.57634L6.71187 6.5538ZM16.4863 4.5777C12.0315 4.6311 9.01913 4.87748 6.71187 6.5538L8.18134 8.57634C9.74801 7.43809 11.9377 7.1324 16.5163 7.07752L16.4863 4.5777ZM35.4048 25.9661C35.35 30.5447 35.0443 32.7344 33.906 34.301L35.9286 35.7705C37.6049 33.4632 37.8513 30.4508 37.9047 25.996L35.4048 25.9661ZM34.9702 16.8207L25.1219 26.669L26.8897 28.4367L36.738 18.5884L34.9702 16.8207ZM16.5188 18.0658L26.3671 8.21754L24.5993 6.44977L14.751 16.2981L16.5188 18.0658ZM21.4921 28.4135C19.351 28.6514 17.8805 28.8117 16.7846 28.7763C15.7223 28.742 15.2616 28.5271 14.9611 28.2266L13.1933 29.9944C14.139 30.94 15.3525 31.2314 16.7039 31.275C18.0219 31.3176 19.7047 31.1275 21.7682 30.8982L21.4921 28.4135ZM12.2895 21.4195C12.0602 23.483 11.8701 25.1659 11.9127 26.4838C11.9563 27.8353 12.2477 29.0488 13.1933 29.9944L14.9611 28.2266C14.6606 27.9261 14.4457 27.4655 14.4114 26.4031C14.376 25.3072 14.5363 23.8367 14.7742 21.6956L12.2895 21.4195ZM14.751 16.2981C13.9106 17.1385 13.2707 17.7553 12.8867 18.5543L15.14 19.6373C15.297 19.3107 15.5578 19.0268 16.5188 18.0658L14.751 16.2981ZM14.7742 21.6956C14.9243 20.3449 14.983 19.9639 15.14 19.6373L12.8867 18.5543C12.5027 19.3533 12.4207 20.2383 12.2895 21.4195L14.7742 21.6956ZM25.1219 26.669C24.1609 27.6299 23.8771 27.8908 23.5504 28.0478L24.6334 30.301C25.4324 29.917 26.0492 29.2772 26.8897 28.4367L25.1219 26.669ZM21.7682 30.8982C22.9495 30.767 23.8344 30.685 24.6334 30.301L23.5504 28.0478C23.2238 28.2048 22.8428 28.2635 21.4921 28.4135L21.7682 30.8982ZM34.9702 8.21754C36.2174 9.46475 37.062 10.3131 37.6103 11.0317C38.1366 11.7215 38.2707 12.1429 38.2707 12.5191H40.7707C40.7707 11.3765 40.2938 10.4274 39.5979 9.51528C38.9239 8.63198 37.9352 7.64701 36.738 6.44977L34.9702 8.21754ZM36.738 18.5884C37.9352 17.3912 38.9239 16.4062 39.5979 15.5229C40.2938 14.6108 40.7707 13.6617 40.7707 12.5191H38.2707C38.2707 12.8953 38.1366 13.3167 37.6103 14.0065C37.062 14.7251 36.2174 15.5735 34.9702 16.8207L36.738 18.5884ZM36.738 6.44977C35.5407 5.25254 34.5558 4.26382 33.6725 3.58988C32.7603 2.89394 31.8112 2.41699 30.6686 2.41699V4.91699C31.0448 4.91699 31.4662 5.05116 32.156 5.57744C32.8746 6.12572 33.723 6.97033 34.9702 8.21754L36.738 6.44977ZM26.3671 8.21754C27.6143 6.97033 28.4626 6.12572 29.1813 5.57744C29.871 5.05116 30.2924 4.91699 30.6686 4.91699V2.41699C29.526 2.41699 28.577 2.89394 27.6648 3.58988C26.7815 4.26382 25.7965 5.25254 24.5993 6.44977L26.3671 8.21754ZM36.738 16.8207L26.3671 6.44977L24.5993 8.21754L34.9702 18.5884L36.738 16.8207Z" fill="#434343"/>
</svg>
