<svg width="44" height="44" viewBox="0 0 44 44" fill="none" xmlns="http://www.w3.org/2000/svg">
<path d="M37.126 20.3638V17.875C37.126 13.8636 35.5325 10.0165 32.696 7.18001C29.8595 4.34352 26.0124 2.75 22.001 2.75C17.9896 2.75 14.1425 4.34352 11.306 7.18001C8.46956 10.0165 6.87603 13.8636 6.87603 17.875V20.3638C5.30743 21.2737 4.08232 22.6751 3.39018 24.3512C2.69805 26.0273 2.57745 27.8848 3.04703 29.6364C3.51662 31.3879 4.55023 32.936 5.98801 34.0411C7.42579 35.1462 9.18762 35.7468 11.001 35.75H12.376C13.4701 35.75 14.5193 35.3154 15.2928 34.5418C16.0664 33.7682 16.501 32.719 16.501 31.625V23.375C16.501 22.281 16.0664 21.2318 15.2928 20.4582C14.5193 19.6846 13.4701 19.25 12.376 19.25H11.001C10.5402 19.2565 10.0806 19.2979 9.62603 19.3738V17.875C9.62603 14.5929 10.9298 11.4453 13.2506 9.12455C15.5713 6.80379 18.719 5.5 22.001 5.5C25.2831 5.5 28.4307 6.80379 30.7515 9.12455C33.0722 11.4453 34.376 14.5929 34.376 17.875V19.3738C33.9215 19.2979 33.4618 19.2565 33.001 19.25H31.626C30.532 19.25 29.4828 19.6846 28.7092 20.4582C27.9356 21.2318 27.501 22.281 27.501 23.375V31.625C27.5053 32.3638 27.7079 33.0878 28.0876 33.7215C28.4674 34.3553 29.0103 34.8754 29.6598 35.2275L28.4085 37.7438C28.2932 37.9726 28.1163 38.1647 27.8976 38.2983C27.6789 38.4319 27.4273 38.5018 27.171 38.5H22.001C21.6364 38.5 21.2866 38.6449 21.0288 38.9027C20.7709 39.1606 20.626 39.5103 20.626 39.875C20.626 40.2397 20.7709 40.5894 21.0288 40.8473C21.2866 41.1051 21.6364 41.25 22.001 41.25H27.171C27.9389 41.2515 28.6919 41.0387 29.3454 40.6354C29.9989 40.2322 30.5268 39.6545 30.8698 38.9675L32.4785 35.75H33.001C34.8144 35.7468 36.5763 35.1462 38.0141 34.0411C39.4518 32.936 40.4855 31.3879 40.955 29.6364C41.4246 27.8848 41.304 26.0273 40.6119 24.3512C39.9198 22.6751 38.6946 21.2737 37.126 20.3638ZM12.376 22C12.7407 22 13.0904 22.1449 13.3483 22.4027C13.6062 22.6606 13.751 23.0103 13.751 23.375V31.625C13.751 31.9897 13.6062 32.3394 13.3483 32.5973C13.0904 32.8551 12.7407 33 12.376 33H11.001C9.54234 33 8.14339 32.4205 7.11195 31.3891C6.08049 30.3576 5.50103 28.9587 5.50103 27.5C5.50103 26.0413 6.08049 24.6424 7.11195 23.6109C8.14339 22.5795 9.54234 22 11.001 22H12.376ZM33.001 33H31.626C31.2614 33 30.9116 32.8551 30.6538 32.5973C30.3959 32.3394 30.251 31.9897 30.251 31.625V23.375C30.251 23.0103 30.3959 22.6606 30.6538 22.4027C30.9116 22.1449 31.2614 22 31.626 22H33.001C34.4597 22 35.8587 22.5795 36.8901 23.6109C37.9216 24.6424 38.501 26.0413 38.501 27.5C38.501 28.9587 37.9216 30.3576 36.8901 31.3891C35.8587 32.4205 34.4597 33 33.001 33Z" fill="#434343"/>
</svg>
