<svg width="44" height="44" viewBox="0 0 44 44" fill="none" xmlns="http://www.w3.org/2000/svg">
<path d="M10.876 9.87502L10.5721 11.0875L10.876 9.87502ZM17.0627 6.30314L15.8607 5.9601L17.0627 6.30314ZM5.93791 18.4281L6.83599 17.5586L5.93791 18.4281ZM5.9379 25.5718L5.03982 24.7024H5.03982L5.9379 25.5718ZM10.876 34.1249L11.1799 35.3374L10.876 34.1249ZM17.0627 37.6968L15.8607 38.0398L17.0627 37.6968ZM26.9389 37.6968L28.1409 38.0398L26.9389 37.6968ZM33.1256 34.1249L33.4295 32.9124L33.1256 34.1249ZM38.0637 25.5718L37.1656 26.4413L38.0637 25.5718ZM38.0637 18.4281L37.1656 17.5586L38.0637 18.4281ZM33.1256 9.87502L32.8217 8.66254L33.1256 9.87502ZM26.9389 6.30314L28.1409 5.9601L26.9389 6.30314ZM10.5721 11.0875C13.9146 11.9254 17.319 9.95984 18.2647 6.64618L15.8607 5.9601C15.2853 7.97638 13.2138 9.17235 11.1799 8.66254L10.5721 11.0875ZM6.83599 17.5586C4.1172 14.7503 6.78061 10.1371 10.5721 11.0875L11.1799 8.66254C4.9488 7.10063 0.571606 14.6822 5.03982 19.2975L6.83599 17.5586ZM6.83599 26.4413C9.23287 23.9655 9.23287 20.0344 6.83599 17.5586L5.03982 19.2975C6.49826 20.804 6.49826 23.1959 5.03982 24.7024L6.83599 26.4413ZM10.5721 32.9124C6.78061 33.8628 4.1172 29.2496 6.83599 26.4413L5.03982 24.7024C0.571605 29.3177 4.9488 36.8993 11.1799 35.3374L10.5721 32.9124ZM18.2647 37.3537C17.319 34.0401 13.9146 32.0745 10.5721 32.9124L11.1799 35.3374C13.2138 34.8276 15.2853 36.0235 15.8607 38.0398L18.2647 37.3537ZM25.7369 37.3537C24.6642 41.1124 19.3374 41.1124 18.2647 37.3537L15.8607 38.0398C17.6236 44.2171 26.378 44.2171 28.1409 38.0398L25.7369 37.3537ZM33.4295 32.9124C30.0869 32.0745 26.6826 34.0401 25.7369 37.3537L28.1409 38.0398C28.7163 36.0235 30.7878 34.8276 32.8217 35.3374L33.4295 32.9124ZM37.1656 26.4413C39.8844 29.2496 37.221 33.8628 33.4295 32.9124L32.8217 35.3374C39.0528 36.8993 43.43 29.3177 38.9618 24.7024L37.1656 26.4413ZM37.1656 17.5586C34.7687 20.0344 34.7687 23.9655 37.1656 26.4413L38.9618 24.7024C37.5033 23.1959 37.5033 20.804 38.9618 19.2975L37.1656 17.5586ZM33.4295 11.0875C37.221 10.1371 39.8844 14.7503 37.1656 17.5586L38.9618 19.2975C43.43 14.6822 39.0528 7.10063 32.8217 8.66254L33.4295 11.0875ZM25.7369 6.64617C26.6826 9.95984 30.0869 11.9254 33.4295 11.0875L32.8217 8.66254C30.7878 9.17235 28.7163 7.97638 28.1409 5.9601L25.7369 6.64617ZM28.1409 5.9601C26.378 -0.21717 17.6236 -0.217168 15.8607 5.9601L18.2647 6.64618C19.3374 2.88747 24.6642 2.88747 25.7369 6.64617L28.1409 5.9601ZM15.2508 21.9999C15.2508 25.7279 18.2729 28.7499 22.0008 28.7499V26.2499C19.6536 26.2499 17.7508 24.3472 17.7508 21.9999H15.2508ZM22.0008 28.7499C25.7287 28.7499 28.7508 25.7279 28.7508 21.9999H26.2508C26.2508 24.3472 24.348 26.2499 22.0008 26.2499V28.7499ZM28.7508 21.9999C28.7508 18.272 25.7287 15.2499 22.0008 15.2499V17.7499C24.348 17.7499 26.2508 19.6527 26.2508 21.9999H28.7508ZM22.0008 15.2499C18.2729 15.2499 15.2508 18.272 15.2508 21.9999H17.7508C17.7508 19.6527 19.6536 17.7499 22.0008 17.7499V15.2499Z" fill="#434343"/>
</svg>
