<svg width="44" height="45" viewBox="0 0 44 45" fill="none" xmlns="http://www.w3.org/2000/svg">
<path d="M8.96473 14.4523C10.2304 14.2232 11.9112 14.2232 14.4506 14.2232H17.1326C20.8878 14.2232 22.7653 14.2232 24.1996 14.964C25.4612 15.6156 26.487 16.6553 27.1298 17.9341C27.8606 19.388 27.8606 21.2911 27.8606 25.0975V28.7659C27.8606 29.146 27.8606 29.3361 27.8531 29.4967C27.7318 32.0933 26.1805 34.3047 23.978 35.3415M8.96473 14.4523C8.35879 14.562 7.84798 14.7242 7.38364 14.964C6.12202 15.6156 5.09628 16.6553 4.45346 17.9341C3.72266 19.388 3.72266 21.2911 3.72266 25.0975V30.8449C3.72266 33.6764 5.9871 35.9717 8.78043 35.9717H9.58739C10.6322 35.9717 11.3466 37.0413 10.9585 38.0245C10.4108 39.4126 11.9879 40.6675 13.1881 39.7986L16.689 37.2638C16.7247 37.2379 16.7426 37.225 16.7601 37.2124C17.8785 36.4136 19.2113 35.9807 20.5794 35.9718C20.6009 35.9717 20.6295 35.9717 20.6867 35.9717C21.1051 35.9717 21.3142 35.9717 21.4727 35.9641C22.3648 35.9213 23.2109 35.7026 23.978 35.3415M8.96473 14.4523C9.06089 12.64 9.28979 11.3789 9.83467 10.3095C10.6612 8.68743 11.98 7.36863 13.602 6.54214C15.4461 5.60254 17.8601 5.60254 22.6882 5.60254H26.1365C30.9645 5.60254 33.3785 5.60254 35.2226 6.54214C36.8447 7.36863 38.1635 8.68743 38.99 10.3095C39.9296 12.1536 39.9296 14.5676 39.9296 19.3956V26.6859C39.9296 30.2773 37.0181 33.1887 33.4267 33.1887H32.3892C31.0459 33.1887 30.1274 34.5454 30.6263 35.7926C31.3305 37.5533 29.3028 39.145 27.7598 38.0428L23.978 35.3415" stroke="#434343" stroke-width="2.63158"/>
<path d="M12.3467 26.2925C12.3467 27.2447 11.5748 28.0166 10.6226 28.0166C9.67036 28.0166 8.89844 27.2447 8.89844 26.2925C8.89844 25.3403 9.67036 24.5684 10.6226 24.5684C11.5748 24.5684 12.3467 25.3403 12.3467 26.2925Z" fill="#434343"/>
<path d="M17.5191 26.2925C17.5191 27.2447 16.7472 28.0166 15.795 28.0166C14.8428 28.0166 14.0709 27.2447 14.0709 26.2925C14.0709 25.3403 14.8428 24.5684 15.795 24.5684C16.7472 24.5684 17.5191 25.3403 17.5191 26.2925Z" fill="#434343"/>
<path d="M22.6915 26.2925C22.6915 27.2447 21.9196 28.0166 20.9674 28.0166C20.0152 28.0166 19.2433 27.2447 19.2433 26.2925C19.2433 25.3403 20.0152 24.5684 20.9674 24.5684C21.9196 24.5684 22.6915 25.3403 22.6915 26.2925Z" fill="#434343"/>
</svg>
