<svg width="44" height="45" viewBox="0 0 44 45" fill="none" xmlns="http://www.w3.org/2000/svg">
<path d="M40.0526 23.5086C40.0526 22.7852 39.4662 22.1989 38.7429 22.1989C38.0195 22.1989 37.4331 22.7852 37.4331 23.5086H40.0526ZM32.1959 10.4114L31.4092 11.4585L32.1959 10.4114ZM35.4686 13.6841L34.4215 14.4708L34.4749 14.542L34.5375 14.6053L35.4686 13.6841ZM37.8536 5.49416C37.8504 4.77083 37.2614 4.18707 36.5381 4.1903C35.8148 4.19353 35.231 4.78252 35.2342 5.50584L37.8536 5.49416ZM36.5585 8.75089L37.8682 8.74505V8.74505L36.5585 8.75089ZM30.5338 14.7756L30.5396 13.4659L30.5338 14.7756ZM27.2887 13.4514C26.5654 13.4481 25.9764 14.0319 25.9732 14.7552C25.9699 15.4786 26.5537 16.0676 27.277 16.0708L27.2887 13.4514ZM35.8896 13.5264L36.9254 14.328L36.9254 14.328L35.8896 13.5264ZM35.3092 14.1067L36.1108 15.1425L36.1108 15.1425L35.3092 14.1067ZM23.681 19.5781C23.681 18.8548 23.0946 18.2684 22.3713 18.2684C21.6479 18.2684 21.0616 18.8548 21.0616 19.5781H23.681ZM24.2686 29.0618C24.895 29.4235 25.696 29.2089 26.0576 28.5824C26.4193 27.956 26.2047 27.155 25.5782 26.7933L24.2686 29.0618ZM24.3359 27.5884L23.681 28.7226L23.681 28.7226L24.3359 27.5884ZM22.6345 26.3022L23.7687 25.6473L23.7687 25.6473L22.6345 26.3022ZM37.4331 23.5086C37.4331 31.8269 30.6898 38.5703 22.3714 38.5703V41.1897C32.1365 41.1897 40.0526 33.2736 40.0526 23.5086H37.4331ZM22.3714 38.5703C14.0531 38.5703 7.30971 31.8269 7.30971 23.5086H4.69029C4.69029 33.2736 12.6064 41.1897 22.3714 41.1897V38.5703ZM7.30971 23.5086C7.30971 15.1902 14.0531 8.44686 22.3714 8.44686V5.82743C12.6064 5.82743 4.69029 13.7435 4.69029 23.5086H7.30971ZM22.3714 8.44686C25.7643 8.44686 28.8917 9.56715 31.4092 11.4585L32.9826 9.36432C30.0271 7.14379 26.3511 5.82743 22.3714 5.82743V8.44686ZM31.4092 11.4585C32.5496 12.3154 33.5646 13.3304 34.4215 14.4708L36.5157 12.8974C35.5106 11.5597 34.3203 10.3694 32.9826 9.36432L31.4092 11.4585ZM35.2342 5.50584L35.2488 8.75674L37.8682 8.74505L37.8536 5.49416L35.2342 5.50584ZM30.5396 13.4659L27.2887 13.4514L27.277 16.0708L30.5279 16.0853L30.5396 13.4659ZM35.2488 8.75674C35.2547 10.0838 35.2566 10.9684 35.1837 11.6361C35.1137 12.2775 34.9884 12.5509 34.8538 12.7248L36.9254 14.328C37.477 13.6152 37.6919 12.7971 37.7877 11.9205C37.8805 11.0703 37.8738 10.0105 37.8682 8.74505L35.2488 8.75674ZM30.5279 16.0853C31.7934 16.0909 32.8532 16.0976 33.7034 16.0048C34.5799 15.9091 35.3981 15.6941 36.1108 15.1425L34.5077 13.071C34.3337 13.2056 34.0604 13.3308 33.419 13.4008C32.7513 13.4738 31.8667 13.4718 30.5396 13.4659L30.5279 16.0853ZM34.8538 12.7248C34.8037 12.7896 34.7495 12.851 34.6917 12.9089L36.5439 14.7611C36.68 14.6251 36.8074 14.4804 36.9254 14.328L34.8538 12.7248ZM34.6917 12.9089C34.6339 12.9667 34.5725 13.0208 34.5077 13.071L36.1108 15.1425C36.2633 15.0245 36.4079 14.8971 36.5439 14.7611L34.6917 12.9089ZM34.5375 14.6053L34.6868 14.7561L36.5489 12.9138L36.3996 12.763L34.5375 14.6053ZM21.0616 19.5781V24.1856H23.681V19.5781H21.0616ZM25.5782 26.7933L24.9907 26.4541L23.681 28.7226L24.2686 29.0618L25.5782 26.7933ZM21.0616 24.1856C21.0616 24.7137 21.0601 25.2039 21.1008 25.6166C21.1443 26.058 21.243 26.5114 21.5002 26.9571L23.7687 25.6473C23.7628 25.6371 23.7299 25.5858 23.7076 25.3596C23.6824 25.1048 23.681 24.7647 23.681 24.1856H21.0616ZM24.9907 26.4541C24.4893 26.1646 24.1954 25.9933 23.9873 25.8441C23.8026 25.7118 23.7746 25.6576 23.7687 25.6473L21.5002 26.957C21.7575 27.4027 22.1009 27.7148 22.4614 27.9732C22.7985 28.2148 23.2237 28.4586 23.681 28.7226L24.9907 26.4541Z" fill="#434343"/>
</svg>
