<svg width="44" height="45" viewBox="0 0 44 45" fill="none" xmlns="http://www.w3.org/2000/svg">
<path fill-rule="evenodd" clip-rule="evenodd" d="M15.6475 12.6002C16.5447 12.0955 18.5539 11.3114 20.3175 12.91C21.315 13.8142 21.6428 14.9764 21.5172 16.1049C21.399 17.1666 20.8915 18.1623 20.2996 18.9724C19.6984 19.7952 18.9364 20.5284 18.1638 21.0663C17.4406 21.5698 16.508 22.042 15.5846 22.042C14.6612 22.042 13.7287 21.5698 13.0055 21.0663C12.2329 20.5284 11.4708 19.7952 10.8697 18.9724C10.2778 18.1623 9.77026 17.1666 9.65209 16.1049C9.52647 14.9764 9.85427 13.8142 10.8517 12.91C12.6153 11.3114 14.6246 12.0955 15.5217 12.6002C15.5217 12.6002 15.5265 12.6018 15.531 12.6029C15.544 12.6061 15.5626 12.6088 15.5846 12.6088C15.6066 12.6088 15.6253 12.6061 15.6382 12.6029C15.6428 12.6018 15.6475 12.6002 15.6475 12.6002ZM17.8319 14.7109C17.577 14.7275 17.2815 14.8359 16.9936 14.9982C16.141 15.479 15.0283 15.479 14.1756 14.9982C13.8878 14.8359 13.5922 14.7275 13.3373 14.7109C13.1308 14.6974 12.9303 14.7376 12.6987 14.9475C12.4263 15.1944 12.3462 15.45 12.3852 15.8007C12.4317 16.2182 12.6614 16.7633 13.0901 17.35C13.5095 17.924 14.0514 18.4436 14.5768 18.8094C14.8379 18.9912 15.0743 19.1206 15.2687 19.2008C15.3648 19.2404 15.4419 19.2644 15.4996 19.278C15.5563 19.2913 15.5846 19.292 15.5846 19.292C15.5846 19.292 15.611 19.2918 15.6697 19.278C15.7274 19.2644 15.8045 19.2404 15.9006 19.2008C16.095 19.1206 16.3314 18.9912 16.5925 18.8094C17.1179 18.4436 17.6598 17.924 18.0792 17.35C18.5079 16.7633 18.7376 16.2182 18.7841 15.8007C18.8231 15.45 18.7429 15.1944 18.4706 14.9475C18.239 14.7376 18.0385 14.6974 17.8319 14.7109Z" fill="#434343"/>
<path fill-rule="evenodd" clip-rule="evenodd" d="M28.4808 12.6002C29.378 12.0955 31.3873 11.3114 33.1509 12.91C34.1483 13.8142 34.4761 14.9764 34.3505 16.1049C34.2323 17.1666 33.7248 18.1623 33.1329 18.9724C32.5318 19.7952 31.7697 20.5284 30.9971 21.0663C30.2739 21.5698 29.3414 22.042 28.418 22.042C27.4946 22.042 26.562 21.5698 25.8388 21.0663C25.0662 20.5284 24.3042 19.7952 23.703 18.9724C23.1111 18.1623 22.6036 17.1666 22.4854 16.1049C22.3598 14.9764 22.6876 13.8142 23.6851 12.91C25.4486 11.3114 27.4579 12.0955 28.3551 12.6002L28.3597 12.6028C28.3558 12.6006 28.3551 12.6002 28.3551 12.6002C28.3551 12.6002 28.3598 12.6018 28.3644 12.6029C28.3773 12.6061 28.396 12.6088 28.418 12.6088C28.4399 12.6088 28.4586 12.6061 28.4715 12.6029C28.4761 12.6018 28.4808 12.6002 28.4808 12.6002ZM30.6653 14.7109C30.4104 14.7275 30.1148 14.8359 29.827 14.9982C28.9743 15.479 27.8616 15.479 27.009 14.9982C26.7211 14.8359 26.4256 14.7275 26.1707 14.7109C25.9641 14.6974 25.7636 14.7376 25.532 14.9475C25.2597 15.1944 25.1795 15.45 25.2185 15.8007C25.265 16.2182 25.4948 16.7633 25.9234 17.35C26.3428 17.924 26.8847 18.4436 27.4101 18.8094C27.6712 18.9912 27.9076 19.1206 28.102 19.2008C28.1981 19.2404 28.2752 19.2644 28.333 19.278C28.3896 19.2913 28.4179 19.292 28.4179 19.292C28.4179 19.292 28.4444 19.2918 28.503 19.278C28.5607 19.2644 28.6379 19.2404 28.7339 19.2008C28.9283 19.1206 29.1647 18.9912 29.4258 18.8094C29.9512 18.4436 30.4931 17.924 30.9125 17.35C31.3412 16.7633 31.5709 16.2182 31.6174 15.8007C31.6564 15.45 31.5763 15.1944 31.3039 14.9475C31.0723 14.7376 30.8718 14.6974 30.6653 14.7109ZM28.4808 12.6002L28.4763 12.6028C28.4802 12.6006 28.4808 12.6002 28.4808 12.6002Z" fill="#434343"/>
<path fill-rule="evenodd" clip-rule="evenodd" d="M13.1291 28.1828C13.652 27.2551 14.6644 26.6253 15.8504 26.6253H28.1522C29.3382 26.6253 30.3506 27.2551 30.8735 28.1828C31.4082 29.1314 31.4052 30.3595 30.6426 31.3674C29.7206 32.586 28.5179 33.8982 27.0902 34.9161C25.6632 35.9335 23.9363 36.7087 22.0013 36.7087C20.0663 36.7087 18.3394 35.9335 16.9124 34.9161C15.4847 33.8982 14.282 32.586 13.36 31.3674C12.5974 30.3595 12.5944 29.1314 13.1291 28.1828ZM15.5041 29.6048C15.5045 29.6124 15.5063 29.6464 15.5531 29.7081C16.3678 30.785 17.3781 31.8708 18.5088 32.6769C19.6402 33.4836 20.8174 33.9587 22.0013 33.9587C23.1852 33.9587 24.3624 33.4836 25.4938 32.6769C26.6245 31.8708 27.6348 30.785 28.4495 29.7081C28.4963 29.6464 28.4981 29.6124 28.4985 29.6048C28.4992 29.5914 28.4969 29.5668 28.4778 29.5331C28.4401 29.4661 28.3409 29.3753 28.1522 29.3753H15.8504C15.6617 29.3753 15.5625 29.4661 15.5248 29.5331C15.5057 29.5668 15.5034 29.5914 15.5041 29.6048Z" fill="#434343"/>
<path fill-rule="evenodd" clip-rule="evenodd" d="M2.29297 22.5003C2.29297 11.6157 11.1167 2.79199 22.0013 2.79199C32.8859 2.79199 41.7096 11.6157 41.7096 22.5003C41.7096 33.3849 32.8859 42.2087 22.0013 42.2087C11.1167 42.2087 2.29297 33.3849 2.29297 22.5003ZM22.0013 5.54199C12.6355 5.54199 5.04297 13.1345 5.04297 22.5003C5.04297 31.8662 12.6355 39.4587 22.0013 39.4587C31.3671 39.4587 38.9596 31.8662 38.9596 22.5003C38.9596 13.1345 31.3671 5.54199 22.0013 5.54199Z" fill="#434343"/>
</svg>
