<svg width="44" height="45" viewBox="0 0 44 45" fill="none" xmlns="http://www.w3.org/2000/svg">
<path d="M23.375 13.3333C23.375 12.5739 22.7594 11.9583 22 11.9583C21.2406 11.9583 20.625 12.5739 20.625 13.3333V31.6667C20.625 32.4261 21.2406 33.0417 22 33.0417C22.7594 33.0417 23.375 32.4261 23.375 31.6667V13.3333Z" fill="#434343"/>
<path d="M30.7083 20.6667C30.7083 19.9073 30.0927 19.2917 29.3333 19.2917C28.5739 19.2917 27.9583 19.9073 27.9583 20.6667V31.6667C27.9583 32.4261 28.5739 33.0417 29.3333 33.0417C30.0927 33.0417 30.7083 32.4261 30.7083 31.6667V20.6667Z" fill="#434343"/>
<path d="M16.0417 24.3333C16.0417 23.5739 15.4261 22.9583 14.6667 22.9583C13.9073 22.9583 13.2917 23.5739 13.2917 24.3333V31.6667C13.2917 32.4261 13.9073 33.0417 14.6667 33.0417C15.4261 33.0417 16.0417 32.4261 16.0417 31.6667V24.3333Z" fill="#434343"/>
<path fill-rule="evenodd" clip-rule="evenodd" d="M30.1831 4.85184C28.0892 4.62497 25.4499 4.62499 22.083 4.625H21.917C18.5501 4.62499 15.9108 4.62497 13.8169 4.85184C11.6801 5.08334 9.94869 5.56426 8.47043 6.63828C7.5755 7.28849 6.78849 8.0755 6.13828 8.97043C5.06426 10.4487 4.58334 12.1801 4.35184 14.3169C4.12497 16.4108 4.12499 19.0501 4.125 22.417V22.583C4.12499 25.9499 4.12497 28.5892 4.35184 30.6831C4.58334 32.8199 5.06426 34.5513 6.13828 36.0296C6.78848 36.9245 7.5755 37.7115 8.47043 38.3617C9.94869 39.4357 11.6801 39.9167 13.8169 40.1482C15.9108 40.375 18.55 40.375 21.9169 40.375H22.083C25.4499 40.375 28.0892 40.375 30.1831 40.1482C32.3199 39.9167 34.0513 39.4357 35.5296 38.3617C36.4245 37.7115 37.2115 36.9245 37.8617 36.0296C38.9357 34.5513 39.4167 32.8199 39.6482 30.6831C39.875 28.5892 39.875 25.95 39.875 22.5831V22.417C39.875 19.0501 39.875 16.4108 39.6482 14.3169C39.4167 12.1801 38.9357 10.4487 37.8617 8.97043C37.2115 8.0755 36.4245 7.28848 35.5296 6.63828C34.0513 5.56426 32.3199 5.08334 30.1831 4.85184ZM10.0868 8.86308C11.0182 8.18642 12.2102 7.792 14.1131 7.58584C16.0417 7.37689 18.5321 7.375 22 7.375C25.4679 7.375 27.9583 7.37689 29.8869 7.58584C31.7898 7.792 32.9818 8.18642 33.9132 8.86308C34.5746 9.34366 35.1563 9.92537 35.6369 10.5868C36.3136 11.5182 36.708 12.7102 36.9142 14.6131C37.1231 16.5417 37.125 19.0321 37.125 22.5C37.125 25.9679 37.1231 28.4583 36.9142 30.3869C36.708 32.2898 36.3136 33.4818 35.6369 34.4132C35.1563 35.0746 34.5746 35.6563 33.9132 36.1369C32.9818 36.8136 31.7898 37.208 29.8869 37.4142C27.9583 37.6231 25.4679 37.625 22 37.625C18.5321 37.625 16.0417 37.6231 14.1131 37.4142C12.2102 37.208 11.0182 36.8136 10.0868 36.1369C9.42537 35.6563 8.84366 35.0746 8.36308 34.4132C7.68642 33.4818 7.292 32.2898 7.08584 30.3869C6.87689 28.4583 6.875 25.9679 6.875 22.5C6.875 19.0321 6.87689 16.5417 7.08584 14.6131C7.292 12.7102 7.68642 11.5182 8.36308 10.5868C8.84366 9.92537 9.42537 9.34366 10.0868 8.86308Z" fill="#434343"/>
</svg>
