<svg width="44" height="45" viewBox="0 0 44 45" fill="none" xmlns="http://www.w3.org/2000/svg">
<path fill-rule="evenodd" clip-rule="evenodd" d="M22.2422 1.95898C17.3069 1.95898 13.2332 5.85082 12.6289 10.8838C10.3276 10.9844 8.58241 11.2718 7.12403 12.1211C5.26129 13.2059 3.79044 14.9062 2.93588 16.9575C2.90956 17.0207 2.88383 17.0842 2.85869 17.148C2.34446 18.4536 2.2074 19.88 2.24923 21.5946C2.29041 23.2824 2.51122 25.3786 2.79351 28.0585L2.80598 28.1769C3.03663 30.3667 3.21784 32.0872 3.46716 33.4677C3.72152 34.8761 4.06271 36.0324 4.66312 37.0684C5.65419 38.7786 7.10001 40.1437 8.82074 40.9938C9.8632 41.5089 10.9903 41.7389 12.3454 41.8501C13.6736 41.959 15.3146 41.959 17.4032 41.959H27.081C29.1697 41.959 30.8107 41.959 32.139 41.8501C33.4941 41.7389 34.6212 41.5089 35.6636 40.9938C37.3844 40.1437 38.8302 38.7786 39.8213 37.0684C40.4217 36.0324 40.7629 34.8761 41.0172 33.4677C41.2665 32.0872 41.4477 30.3669 41.6784 28.1772L41.6909 28.0587C41.9731 25.3788 42.194 23.2823 42.2351 21.5946C42.277 19.88 42.1399 18.4536 41.6257 17.148C41.5593 16.9795 41.4888 16.8131 41.4142 16.6492C40.5443 14.7359 39.1289 13.151 37.3604 12.1211C35.8962 11.2684 34.1567 10.9984 31.8578 10.9032C31.2616 5.86079 27.1838 1.95898 22.2422 1.95898ZM16.0966 10.8429C15.7866 10.8412 15.485 10.8395 15.1923 10.8388C15.7927 7.3064 18.7207 4.62565 22.2422 4.62565C25.7681 4.62565 28.699 7.31312 29.2943 10.8521C28.5967 10.8479 27.8457 10.8479 27.0374 10.8479H17.4565C16.987 10.8479 16.5334 10.8454 16.0966 10.8429ZM13.8396 13.5143C14.5138 13.5008 15.2311 13.5048 16.039 13.5094C16.4817 13.5119 16.9516 13.5145 17.4565 13.5145H27.0279C28.4174 13.5145 29.6062 13.5146 30.6451 13.5351C33.5706 13.5929 35.049 13.8211 36.1385 14.4556C37.1792 15.0616 38.0543 15.9276 38.6924 16.969L33.0609 22.9094C30.2268 25.899 28.1892 28.0444 26.4317 29.4589C24.7034 30.8499 23.3954 31.4078 22.0377 31.4078C20.68 31.4078 19.372 30.8499 17.6436 29.4589C15.8862 28.0444 13.8486 25.899 11.0145 22.9094L5.63587 17.2358C6.28382 16.0752 7.21757 15.1127 8.34583 14.4556C9.43633 13.8205 10.9373 13.5725 13.8396 13.5143ZM39.6517 19.7283C39.7066 20.2373 39.7251 20.8253 39.708 21.526C39.6699 23.087 39.462 25.0707 39.1717 27.8268C38.934 30.0843 38.7627 31.7019 38.5339 32.9687C38.3081 34.2192 38.0423 35.0255 37.6644 35.6776C36.9319 36.9416 35.8632 37.9506 34.5914 38.579C33.9352 38.9031 33.1462 39.0928 31.943 39.1914C30.7242 39.2914 29.1812 39.2923 27.0279 39.2923H17.4565C15.3032 39.2923 13.7602 39.2914 12.5414 39.1914C11.3382 39.0928 10.5492 38.9031 9.89302 38.579C8.62118 37.9506 7.55253 36.9416 6.82 35.6776C6.4421 35.0255 6.17632 34.2192 5.95047 32.9687C5.72169 31.7019 5.55042 30.0843 5.31263 27.8268C5.02233 25.0707 4.81446 23.087 4.77638 21.526C4.76354 20.9997 4.77076 20.537 4.79843 20.1236L9.2953 24.8672C12.0462 27.769 14.202 30.0431 16.1102 31.5789C18.0634 33.1509 19.905 34.0745 22.0377 34.0745C24.1704 34.0745 26.012 33.1509 27.9652 31.5789C29.8734 30.0431 32.0292 27.769 34.7801 24.8672L39.6517 19.7283Z" fill="#434343"/>
</svg>
