<svg width="44" height="45" viewBox="0 0 44 45" fill="none" xmlns="http://www.w3.org/2000/svg">
<path fill-rule="evenodd" clip-rule="evenodd" d="M22.918 6C21.3992 6 20.168 7.23122 20.168 8.75V36.25C20.168 37.7688 21.3992 39 22.918 39H26.5846C28.1034 39 29.3346 37.7688 29.3346 36.25V8.75C29.3346 7.23122 28.1034 6 26.5846 6H22.918ZM26.5846 8.75L22.918 8.75V36.25H26.5846V8.75Z" fill="#434343"/>
<path fill-rule="evenodd" clip-rule="evenodd" d="M14.2479 6.09439C12.7809 5.7013 11.273 6.5719 10.8799 8.03893L3.76236 34.6019C3.36927 36.0689 4.23987 37.5768 5.7069 37.9699L9.24863 38.9189C10.7157 39.312 12.2236 38.4414 12.6167 36.9744L19.7342 10.4114C20.1273 8.94441 19.2567 7.43648 17.7897 7.04339L14.2479 6.09439ZM17.0779 9.69969L13.5362 8.75068L6.41865 35.3136L9.96038 36.2626L17.0779 9.69969Z" fill="#434343"/>
<path fill-rule="evenodd" clip-rule="evenodd" d="M31.168 8.75C31.168 7.23122 32.3992 6 33.918 6H37.5846C39.1034 6 40.3346 7.23122 40.3346 8.75V36.25C40.3346 37.7688 39.1034 39 37.5846 39H33.918C32.3992 39 31.168 37.7688 31.168 36.25V8.75ZM33.918 8.75L37.5846 8.75V36.25H33.918V8.75Z" fill="#434343"/>
</svg>
