<svg width="72" height="72" viewBox="0 0 72 72" fill="none" xmlns="http://www.w3.org/2000/svg">
<rect width="72" height="72" rx="20" fill="#D5EFFF"/>
<path d="M54.8919 29.5169C50.6707 29.5169 48.9449 26.5317 51.0438 22.8702C52.2566 20.7479 51.5336 18.0426 49.4113 16.8299L45.3767 14.521C43.5343 13.4249 41.1555 14.0779 40.0593 15.9203L39.8028 16.3634C37.7038 20.0249 34.2522 20.0249 32.13 16.3634L31.8734 15.9203C30.8239 14.0779 28.4451 13.4249 26.6027 14.521L22.5681 16.8299C20.4458 18.0426 19.7228 20.7712 20.9356 22.8935C23.0578 26.5317 21.332 29.5169 17.1108 29.5169C14.6854 29.5169 12.6797 31.4992 12.6797 33.948V38.0526C12.6797 40.478 14.662 42.4837 17.1108 42.4837C21.332 42.4837 23.0578 45.4689 20.9356 49.1304C19.7228 51.2527 20.4458 53.958 22.5681 55.1707L26.6027 57.4795C28.4451 58.5757 30.8239 57.9227 31.9201 56.0802L32.1766 55.6371C34.2756 51.9756 37.7272 51.9756 39.8494 55.6371L40.106 56.0802C41.2021 57.9227 43.5809 58.5757 45.4233 57.4795L49.458 55.1707C51.5802 53.958 52.3032 51.2293 51.0905 49.1304C48.9682 45.4689 50.694 42.4837 54.9152 42.4837C57.3407 42.4837 59.3464 40.5014 59.3464 38.0526V33.948C59.323 31.5225 57.3407 29.5169 54.8919 29.5169ZM36.0014 43.5798C31.8268 43.5798 28.4218 40.1749 28.4218 36.0003C28.4218 31.8257 31.8268 28.4207 36.0014 28.4207C40.1759 28.4207 43.5809 31.8257 43.5809 36.0003C43.5809 40.1749 40.1759 43.5798 36.0014 43.5798Z" fill="url(#paint0_linear_1651_19464)"/>
<defs>
<linearGradient id="paint0_linear_1651_19464" x1="36.013" y1="13.9872" x2="36.013" y2="58.0134" gradientUnits="userSpaceOnUse">
<stop stop-color="#29CEFF"/>
<stop offset="1" stop-color="#0381F1"/>
</linearGradient>
</defs>
</svg>
